<svg width="30.000000" height="30.000000" viewBox="0 0 30 30" fill="none" xmlns="http://www.w3.org/2000/svg" xmlns:xlink="http://www.w3.org/1999/xlink">
	<desc>
			Created with Pixso.
	</desc>
	<defs>
		<clipPath id="clip27_2">
			<rect id="bed" rx="-0.500000" width="29.000000" height="29.000000" transform="translate(0.500000 0.500000)" fill="white" fill-opacity="0"/>
		</clipPath>
	</defs>
	<rect id="bed" rx="-0.500000" width="29.000000" height="29.000000" transform="translate(0.500000 0.500000)" fill="#FFFFFF" fill-opacity="0"/>
	<g clip-path="url(#clip27_2)">
		<path id="Vector" d="M28.24 13.68L28.24 6.85C28.24 3.94 25.87 1.58 22.96 1.58L17.43 1.58C17.1 1.58 16.84 1.84 16.84 2.16C16.84 2.49 17.1 2.75 17.43 2.75L22.96 2.75C25.23 2.75 27.07 4.59 27.07 6.85L27.07 13.06C26.62 12.91 26.15 12.83 25.66 12.83L25.54 12.83L25.54 9.47C25.54 8.22 24.53 7.2 23.28 7.2L16.67 7.2C16.01 7.2 15.41 7.49 15 7.95C14.58 7.49 13.98 7.2 13.32 7.2L6.71 7.2C5.46 7.2 4.45 8.22 4.45 9.47L4.45 12.83L4.33 12.83C3.84 12.83 3.37 12.91 2.92 13.06L2.92 6.85C2.92 4.59 4.76 2.75 7.03 2.75L12.68 2.75C13 2.75 13.27 2.49 13.27 2.16C13.27 1.84 13 1.58 12.68 1.58L7.03 1.58C4.12 1.58 1.75 3.94 1.75 6.85L1.75 13.68C0.69 14.47 0 15.74 0 17.16L0 24.66C0 24.99 0.26 25.25 0.58 25.25L1.75 25.25L1.75 27.83C1.75 28.15 2.02 28.41 2.34 28.41L5.5 28.41C5.83 28.41 6.09 28.15 6.09 27.83L6.09 25.25L23.9 25.25L23.9 27.83C23.9 28.15 24.16 28.41 24.49 28.41L27.65 28.41C27.97 28.41 28.24 28.15 28.24 27.83L28.24 25.25L29.41 25.25C29.73 25.25 30 24.99 30 24.66L30 17.16C30 15.74 29.3 14.47 28.24 13.68ZM15.58 9.47C15.58 8.86 16.07 8.37 16.67 8.37L23.28 8.37C23.88 8.37 24.37 8.86 24.37 9.47L24.37 12.83L15.58 12.83L15.58 9.47ZM5.62 9.47C5.62 8.86 6.11 8.37 6.71 8.37L13.32 8.37C13.92 8.37 14.41 8.86 14.41 9.47L14.41 12.83L5.62 12.83L5.62 9.47ZM4.92 27.24L2.92 27.24L2.92 25.25L4.92 25.25L4.92 27.24ZM27.07 27.24L25.07 27.24L25.07 25.25L27.07 25.25L27.07 27.24ZM28.82 21.26L5.38 21.26C5.06 21.26 4.79 21.53 4.79 21.85C4.79 22.17 5.06 22.44 5.38 22.44L28.82 22.44L28.82 24.08L27.67 24.08C27.66 24.08 27.66 24.08 27.65 24.08L24.49 24.08C24.48 24.08 24.48 24.08 24.47 24.08L5.52 24.08C5.51 24.08 5.51 24.08 5.5 24.08L2.34 24.08C2.33 24.08 2.33 24.08 2.32 24.08L1.17 24.08L1.17 17.16C1.17 15.42 2.59 14 4.33 14L5.03 14L15 14L24.96 14L25.66 14C27.4 14 28.82 15.42 28.82 17.16L28.82 21.26Z" fill="#393939" fill-opacity="1.000000" fill-rule="nonzero"/>
		<path id="Vector" d="M15.41 1.75C15.3 1.64 15.15 1.58 15 1.58C14.84 1.58 14.69 1.64 14.58 1.75C14.47 1.86 14.41 2.01 14.41 2.16C14.41 2.32 14.47 2.47 14.58 2.58C14.69 2.69 14.84 2.75 15 2.75C15.15 2.75 15.3 2.69 15.41 2.58C15.52 2.47 15.58 2.32 15.58 2.16C15.58 2.01 15.52 1.86 15.41 1.75Z" fill="#393939" fill-opacity="1.000000" fill-rule="nonzero"/>
		<path id="Vector" d="M3.46 21.44C3.35 21.33 3.2 21.26 3.05 21.26C2.89 21.26 2.74 21.33 2.63 21.44C2.52 21.54 2.46 21.7 2.46 21.85C2.46 22 2.52 22.16 2.63 22.26C2.74 22.37 2.89 22.44 3.05 22.44C3.2 22.44 3.35 22.37 3.46 22.26C3.57 22.16 3.63 22 3.63 21.85C3.63 21.7 3.57 21.54 3.46 21.44Z" fill="#393939" fill-opacity="1.000000" fill-rule="nonzero"/>
	</g>
</svg>
