<svg width="30.000000" height="30.000000" viewBox="0 0 30 30" fill="none" xmlns="http://www.w3.org/2000/svg" xmlns:xlink="http://www.w3.org/1999/xlink">
	<desc>
			Created with Pixso.
	</desc>
	<defs>
		<clipPath id="clip26_4">
			<rect id="door" rx="-0.500000" width="29.000000" height="29.000000" transform="translate(0.500000 0.500000)" fill="white" fill-opacity="0"/>
		</clipPath>
	</defs>
	<rect id="door" rx="-0.500000" width="29.000000" height="29.000000" transform="translate(0.500000 0.500000)" fill="#FFFFFF" fill-opacity="0"/>
	<g clip-path="url(#clip26_4)">
		<path id="Vector" d="M28.5 29L25.5 29L25.5 0.5C25.5 0.19 25.29 0 25 0L5 0C4.7 0 4.5 0.19 4.5 0.5L4.5 29L1.5 29C1.2 29 1 29.2 1 29.49C1 29.8 1.2 30 1.5 30L5 30L7 30L23 30L25 30L28.5 30C28.79 30 29 29.8 29 29.5C29 29.2 28.79 29 28.5 29ZM7.5 29L7.5 3L22.5 3L22.5 29L7.5 29ZM23.5 29L23.5 2.5C23.5 2.2 23.29 2 23 2L7 2C6.7 2 6.5 2.2 6.5 2.5L6.5 29L5.5 29L5.5 1L24.5 1L24.5 29L23.5 29L23.5 29Z" fill="#393939" fill-opacity="1.000000" fill-rule="nonzero"/>
		<path id="Vector" d="M21 14.5L19 14.5C18.7 14.5 18.5 14.7 18.5 15L18.5 15.49L17.5 15.49C17.2 15.49 17 15.7 17 15.99C17 16.29 17.2 16.49 17.5 16.49L18.5 16.49L18.5 16.99C18.5 17.29 18.7 17.49 19 17.49L21 17.49C21.29 17.49 21.5 17.29 21.5 16.99L21.5 15C21.5 14.7 21.29 14.5 21 14.5ZM20.5 16.5L19.5 16.5L19.5 15.49L20.5 15.49L20.5 16.5Z" fill="#393939" fill-opacity="1.000000" fill-rule="nonzero"/>
	</g>
</svg>
