<svg width="360.000000" height="400.000000" viewBox="0 0 360 400" fill="none" xmlns="http://www.w3.org/2000/svg" xmlns:xlink="http://www.w3.org/1999/xlink">
	<desc>
			Created with Pixso.
	</desc>
	<defs>
		<clipPath id="clip112_7">
			<rect id="reliability" rx="-0.500000" width="89.000000" height="89.000000" transform="translate(144.500000 52.500000)" fill="white" fill-opacity="0"/>
		</clipPath>
		<clipPath id="clip112_3">
			<rect id="Форма (Ваш заказ принят)" rx="9.500000" width="359.000000" height="399.000000" transform="translate(0.500000 0.500000)" fill="white" fill-opacity="0"/>
		</clipPath>
	</defs>
	<rect id="Форма (Ваш заказ принят)" rx="9.500000" width="359.000000" height="399.000000" transform="translate(0.500000 0.500000)" fill="#FFFFFF" fill-opacity="1.000000"/>
	<g clip-path="url(#clip112_3)">
		<path id="Ваш заказ принят, ожидайте звонка от оператора" d="M232.38 199.82Q232.61 199.43 232.61 198.91L231.58 198.91Q231.58 199.33 231.38 199.59Q231.35 199.63 231.31 199.66Q231.28 199.69 231.24 199.72Q230.98 199.92 230.57 199.92Q230.11 199.92 229.85 199.7Q229.83 199.68 229.81 199.65Q229.78 199.63 229.76 199.6Q229.55 199.34 229.55 198.91L228.51 198.91Q228.51 199.41 228.73 199.79Q228.86 200.04 229.08 200.23Q229.17 200.31 229.26 200.38Q229.79 200.74 230.57 200.74Q231.35 200.74 231.88 200.37Q231.96 200.31 232.05 200.24Q232.25 200.05 232.38 199.82ZM60.67 199.04L60.67 209L64.12 209Q65.71 209 66.58 208.23Q66.83 208.01 67.01 207.74Q67.45 207.08 67.45 206.12Q67.45 205.46 67.17 204.93Q67.09 204.77 66.98 204.62Q66.81 204.39 66.61 204.22Q66.22 203.91 65.7 203.76Q66.31 203.5 66.69 203.05Q66.74 202.99 66.78 202.93Q66.94 202.72 67.03 202.49Q67.18 202.12 67.18 201.69Q67.18 200.67 66.68 200.04Q66.54 199.86 66.36 199.71Q65.55 199.04 63.93 199.04L60.67 199.04ZM63.97 203.29L61.98 203.29L61.98 200.12L63.93 200.12Q64.9 200.12 65.38 200.5Q65.45 200.55 65.51 200.61Q65.86 200.99 65.86 201.69Q65.86 202.15 65.66 202.5Q65.54 202.7 65.34 202.86Q65.33 202.87 65.32 202.88Q64.81 203.29 63.97 203.29ZM73.58 208.22Q73.65 208.78 73.76 209L75.08 209L75.08 208.89Q74.82 208.28 74.82 207.27L74.82 203.86Q74.8 203.05 74.42 202.49Q74.27 202.28 74.07 202.1Q74.06 202.09 74.05 202.09Q73.33 201.46 72.07 201.46Q71.27 201.46 70.6 201.76Q70.59 201.76 70.59 201.76Q69.92 202.06 69.53 202.57Q69.52 202.58 69.52 202.58Q69.18 203.03 69.13 203.5Q69.13 203.58 69.13 203.65L70.4 203.65Q70.4 203.5 70.44 203.37Q70.54 203.06 70.86 202.82Q70.9 202.79 70.95 202.76Q71.38 202.48 71.99 202.48Q72.75 202.48 73.15 202.86Q73.15 202.87 73.16 202.87Q73.25 202.96 73.32 203.06Q73.56 203.41 73.56 203.93L73.56 204.51L72.33 204.51Q70.73 204.51 69.86 205.15Q69.48 205.42 69.27 205.79Q68.98 206.28 68.98 206.94Q68.98 207.44 69.17 207.85Q69.34 208.22 69.68 208.51Q69.82 208.64 69.97 208.74Q70.6 209.13 71.47 209.13Q72.01 209.13 72.48 208.96Q73.08 208.73 73.58 208.22ZM103.09 208.22Q103.16 208.78 103.27 209L104.59 209L104.59 208.89Q104.33 208.28 104.33 207.27L104.33 203.86Q104.31 203.05 103.93 202.49Q103.78 202.28 103.58 202.1Q103.57 202.09 103.57 202.09Q102.84 201.46 101.58 201.46Q100.78 201.46 100.11 201.76L100.1 201.76Q99.43 202.06 99.04 202.57L99.03 202.58Q98.69 203.03 98.65 203.5Q98.64 203.58 98.64 203.65L99.91 203.65Q99.91 203.5 99.95 203.37Q100.05 203.06 100.37 202.82Q100.41 202.79 100.46 202.76Q100.89 202.48 101.5 202.48Q102.26 202.48 102.66 202.86Q102.66 202.87 102.67 202.87Q102.76 202.96 102.83 203.06Q103.07 203.41 103.07 203.93L103.07 204.51L101.84 204.51Q100.25 204.51 99.37 205.15Q98.99 205.42 98.78 205.79Q98.49 206.28 98.49 206.94Q98.49 207.44 98.68 207.85Q98.86 208.22 99.19 208.51Q99.33 208.64 99.48 208.74Q100.11 209.13 100.98 209.13Q101.52 209.13 101.99 208.96Q102.59 208.73 103.09 208.22ZM118.26 208.22Q118.33 208.78 118.44 209L119.77 209L119.77 208.89Q119.51 208.28 119.51 207.27L119.51 203.86Q119.49 203.05 119.1 202.49Q118.96 202.28 118.76 202.1Q118.75 202.09 118.74 202.09Q118.02 201.46 116.75 201.46Q115.95 201.46 115.28 201.76L115.27 201.76Q114.61 202.06 114.21 202.57L114.21 202.58Q113.87 203.03 113.82 203.5Q113.81 203.58 113.81 203.65L115.09 203.65Q115.09 203.5 115.13 203.37Q115.22 203.06 115.54 202.82Q115.59 202.79 115.64 202.76Q116.07 202.48 116.68 202.48Q117.44 202.48 117.83 202.86Q117.84 202.87 117.85 202.87Q117.94 202.96 118 203.06Q118.24 203.41 118.24 203.93L118.24 204.51L117.01 204.51Q115.42 204.51 114.54 205.15Q114.17 205.42 113.95 205.79Q113.66 206.28 113.66 206.94Q113.66 207.44 113.86 207.85Q114.03 208.22 114.36 208.51Q114.5 208.64 114.66 208.74Q115.28 209.13 116.16 209.13Q116.69 209.13 117.16 208.96Q117.77 208.73 118.26 208.22ZM145.62 208.1Q146.39 207.07 146.39 205.38L146.39 205.26Q146.39 203.47 145.62 202.47Q145.28 202.03 144.83 201.78Q144.26 201.46 143.51 201.46Q142.62 201.46 141.98 201.86Q141.64 202.08 141.36 202.42L141.3 201.6L140.15 201.6L140.15 211.84L141.41 211.84L141.41 208.28Q141.62 208.51 141.87 208.68Q142.55 209.13 143.53 209.13Q144.23 209.13 144.77 208.84Q145.26 208.59 145.62 208.1ZM184.87 203.27Q184.44 204.14 184.44 205.23L184.44 205.32Q184.44 206.83 185.16 207.82Q185.26 207.96 185.38 208.09Q185.75 208.5 186.2 208.75Q186.9 209.13 187.81 209.13Q188.62 209.13 189.28 208.82Q189.44 208.74 189.58 208.65Q189.84 208.49 190.06 208.28Q190.49 207.88 190.76 207.32Q191.18 206.46 191.18 205.38L191.18 205.29Q191.18 203.75 190.44 202.75Q190.35 202.62 190.24 202.51Q189.88 202.1 189.43 201.85Q188.72 201.46 187.8 201.46Q187.03 201.46 186.4 201.75Q186.23 201.83 186.06 201.93Q185.87 202.05 185.7 202.2Q185.19 202.63 184.87 203.27ZM224.26 208.22Q224.32 208.78 224.43 209L225.76 209L225.76 208.89Q225.5 208.28 225.5 207.27L225.5 203.86Q225.48 203.05 225.09 202.49Q224.95 202.28 224.75 202.1Q224.74 202.09 224.73 202.09Q224.01 201.46 222.75 201.46Q221.94 201.46 221.27 201.76L221.27 201.76Q220.6 202.06 220.2 202.57L220.2 202.58Q219.86 203.03 219.81 203.5Q219.81 203.58 219.81 203.65L221.08 203.65Q221.08 203.5 221.12 203.37Q221.22 203.06 221.54 202.82Q221.58 202.79 221.63 202.76Q222.06 202.48 222.67 202.48Q223.43 202.48 223.82 202.86Q223.83 202.87 223.84 202.87Q223.93 202.96 224 203.06Q224.24 203.41 224.24 203.93L224.24 204.51L223 204.51Q221.41 204.51 220.53 205.15Q220.16 205.42 219.95 205.79Q219.66 206.28 219.66 206.94Q219.66 207.44 219.85 207.85Q220.02 208.22 220.36 208.51Q220.5 208.64 220.65 208.74Q221.28 209.13 222.15 209.13Q222.69 209.13 223.16 208.96Q223.76 208.73 224.26 208.22ZM243.09 208.71Q243.83 209.13 244.81 209.13Q245.92 209.13 246.69 208.63Q247.22 208.28 247.6 207.7L246.83 207.1Q246.52 207.5 246.12 207.76Q246.07 207.79 246.01 207.83Q245.55 208.1 244.88 208.1Q244.36 208.1 243.93 207.89Q243.6 207.73 243.32 207.43Q243.24 207.33 243.16 207.22Q242.71 206.6 242.69 205.66L247.7 205.66L247.7 205.13Q247.7 203.36 246.9 202.41Q246.66 202.13 246.37 201.93Q245.67 201.46 244.65 201.46Q244.27 201.46 243.91 201.56Q243.44 201.68 243.02 201.95Q242.81 202.08 242.63 202.25Q242.15 202.68 241.84 203.3Q241.42 204.17 241.42 205.27L241.42 205.5Q241.42 206.87 242.07 207.78Q242.2 207.97 242.36 208.14Q242.69 208.49 243.09 208.71ZM267.82 203.27Q267.4 204.14 267.4 205.23L267.4 205.32Q267.4 206.83 268.12 207.82Q268.22 207.96 268.33 208.09Q268.7 208.5 269.16 208.75Q269.86 209.13 270.77 209.13Q271.58 209.13 272.24 208.82Q272.39 208.74 272.53 208.65Q272.79 208.49 273.02 208.28Q273.44 207.88 273.72 207.32Q274.13 206.46 274.13 205.38L274.13 205.29Q274.13 203.75 273.39 202.75Q273.3 202.62 273.2 202.51Q272.83 202.1 272.38 201.85Q271.68 201.46 270.75 201.46Q269.99 201.46 269.35 201.75Q269.18 201.83 269.01 201.93Q268.82 202.05 268.65 202.2Q268.14 202.63 267.82 203.27ZM295.74 208.22Q295.81 208.78 295.92 209L297.24 209L297.24 208.89Q296.98 208.28 296.98 207.27L296.98 203.86Q296.96 203.05 296.58 202.49Q296.43 202.28 296.23 202.1Q296.22 202.09 296.22 202.09Q295.49 201.46 294.23 201.46Q293.43 201.46 292.76 201.76L292.75 201.76Q292.08 202.06 291.69 202.57L291.68 202.58Q291.34 203.03 291.29 203.5Q291.29 203.58 291.29 203.65L292.56 203.65Q292.56 203.5 292.6 203.37Q292.7 203.06 293.02 202.82Q293.06 202.79 293.11 202.76Q293.54 202.48 294.15 202.48Q294.91 202.48 295.31 202.86Q295.31 202.87 295.32 202.87Q295.41 202.96 295.48 203.06Q295.72 203.41 295.72 203.93L295.72 204.51L294.49 204.51Q292.9 204.51 292.02 205.15Q291.64 205.42 291.43 205.79Q291.14 206.28 291.14 206.94Q291.14 207.44 291.33 207.85Q291.51 208.22 291.84 208.51Q291.98 208.64 292.13 208.74Q292.76 209.13 293.63 209.13Q294.17 209.13 294.64 208.96Q295.24 208.73 295.74 208.22ZM95.54 203.12Q95.66 203.34 95.66 203.62Q95.66 204.02 95.46 204.27Q95.16 204.67 94.37 204.69L92.99 204.69L92.99 205.76L94.26 205.76Q95.04 205.76 95.41 206.03Q95.48 206.07 95.53 206.12Q95.79 206.4 95.79 206.92Q95.79 207.16 95.7 207.35Q95.59 207.6 95.34 207.79Q94.9 208.12 94.17 208.12Q93.58 208.12 93.15 207.86Q93.06 207.8 92.97 207.73Q92.65 207.47 92.54 207.14Q92.49 206.98 92.49 206.81L91.23 206.81Q91.23 207.38 91.47 207.82Q91.68 208.21 92.07 208.5Q92.09 208.52 92.12 208.54Q92.94 209.13 94.17 209.13Q95.49 209.13 96.27 208.53Q96.63 208.26 96.83 207.9Q97.06 207.47 97.06 206.92Q97.06 206.33 96.79 205.92Q96.47 205.43 95.77 205.19Q96.32 204.95 96.62 204.53Q96.8 204.29 96.87 204.02Q96.92 203.83 96.92 203.62Q96.92 202.94 96.61 202.47Q96.45 202.22 96.2 202.03Q95.47 201.47 94.17 201.47Q93.08 201.47 92.32 201.97Q92.24 202.02 92.16 202.08Q91.7 202.43 91.5 202.89Q91.35 203.24 91.35 203.66L92.61 203.66Q92.61 203.54 92.64 203.42Q92.73 203.1 93.06 202.84Q93.11 202.8 93.18 202.76Q93.59 202.49 94.17 202.49Q94.86 202.49 95.26 202.8Q95.44 202.94 95.54 203.12ZM125.44 203.12Q125.56 203.34 125.56 203.62Q125.56 204.02 125.37 204.27Q125.06 204.67 124.27 204.69L122.89 204.69L122.89 205.76L124.16 205.76Q124.94 205.76 125.32 206.03Q125.38 206.07 125.43 206.12Q125.69 206.4 125.69 206.92Q125.69 207.16 125.6 207.35Q125.49 207.6 125.24 207.79Q124.8 208.12 124.08 208.12Q123.48 208.12 123.05 207.86Q122.96 207.8 122.88 207.73Q122.55 207.47 122.44 207.14Q122.39 206.98 122.39 206.81L121.14 206.81Q121.14 207.38 121.37 207.82Q121.58 208.21 121.97 208.5Q121.99 208.52 122.02 208.54Q122.84 209.13 124.08 209.13Q125.39 209.13 126.17 208.53Q126.53 208.26 126.73 207.9Q126.96 207.47 126.96 206.92Q126.96 206.33 126.69 205.92Q126.37 205.43 125.67 205.19Q126.22 204.95 126.52 204.53Q126.7 204.29 126.77 204.02Q126.82 203.83 126.82 203.62Q126.82 202.94 126.51 202.47Q126.35 202.22 126.1 202.03Q125.37 201.47 124.08 201.47Q122.98 201.47 122.22 201.97Q122.14 202.02 122.06 202.08Q121.6 202.43 121.4 202.89Q121.25 203.24 121.25 203.66L122.51 203.66Q122.51 203.54 122.54 203.42Q122.63 203.1 122.96 202.84Q123.02 202.8 123.08 202.76Q123.49 202.49 124.08 202.49Q124.77 202.49 125.16 202.8Q125.34 202.94 125.44 203.12ZM256.57 203.12Q256.69 203.34 256.69 203.62Q256.69 204.02 256.5 204.27Q256.19 204.67 255.4 204.69L254.03 204.69L254.03 205.76L255.29 205.76Q256.08 205.76 256.45 206.03Q256.51 206.07 256.56 206.12Q256.82 206.4 256.82 206.92Q256.82 207.16 256.73 207.35Q256.62 207.6 256.38 207.79Q255.93 208.12 255.21 208.12Q254.62 208.12 254.18 207.86Q254.09 207.8 254.01 207.73Q253.68 207.47 253.58 207.14Q253.53 206.98 253.53 206.81L252.27 206.81Q252.27 207.38 252.5 207.82Q252.71 208.21 253.1 208.5Q253.13 208.52 253.15 208.54Q253.97 209.13 255.21 209.13Q256.52 209.13 257.31 208.53Q257.67 208.26 257.86 207.9Q258.09 207.47 258.09 206.92Q258.09 206.33 257.82 205.92Q257.5 205.43 256.8 205.19Q257.35 204.95 257.66 204.53Q257.83 204.29 257.9 204.02Q257.96 203.83 257.96 203.62Q257.96 202.94 257.65 202.47Q257.48 202.22 257.23 202.03Q256.51 201.47 255.21 201.47Q254.12 201.47 253.35 201.97Q253.27 202.02 253.19 202.08Q252.74 202.43 252.54 202.89Q252.39 203.24 252.39 203.66L253.64 203.66Q253.64 203.54 253.68 203.42Q253.76 203.1 254.09 202.84Q254.15 202.8 254.21 202.76Q254.63 202.49 255.21 202.49Q255.9 202.49 256.29 202.8Q256.47 202.94 256.57 203.12ZM78.18 207.96L78.18 201.6L76.91 201.6L76.91 209L86.13 209L86.13 201.6L84.86 201.6L84.86 207.96L82.16 207.96L82.16 201.6L80.89 201.6L80.89 207.96L78.18 207.96ZM107.7 205.84L108.62 205.84L111.18 209L112.79 209L109.62 205.15L112.54 201.6L111.01 201.6L108.52 204.73L107.7 204.73L107.7 201.6L106.42 201.6L106.42 209L107.7 209L107.7 205.84ZM136.85 209L138.12 209L138.12 201.6L132.17 201.6L132.17 209L133.45 209L133.45 202.64L136.85 202.64L136.85 209ZM154.05 201.6L152.79 201.6L149.37 207L149.37 201.6L148.11 201.6L148.11 209L149.37 209L152.79 203.6L152.79 209L154.05 209L154.05 201.6ZM160.86 209L162.12 209L162.12 201.6L160.86 201.6L160.86 204.81L157.46 204.81L157.46 201.6L156.19 201.6L156.19 209L157.46 209L157.46 205.84L160.86 205.84L160.86 209ZM169.81 209L169.81 201.6L166.7 201.6Q165.43 201.61 164.67 202.22Q164.32 202.51 164.13 202.87Q163.91 203.3 163.91 203.85Q163.91 204.39 164.12 204.83Q164.19 204.98 164.29 205.12Q164.34 205.2 164.41 205.28Q164.77 205.71 165.38 205.93L163.52 209L164.89 209L166.63 206.12L168.54 206.12L168.54 209L169.81 209ZM174.85 202.62L177.33 202.62L177.33 201.6L171.15 201.6L171.15 202.62L173.59 202.62L173.59 209L174.85 209L174.85 202.62ZM197.63 205.78L198.52 205.78L200.59 209L202.19 209L199.54 205.17L201.94 201.6L200.41 201.6L198.49 204.66L197.63 204.66L197.63 201.6L196.37 201.6L196.37 204.66L195.5 204.66L193.59 201.6L192.06 201.6L194.45 205.17L191.81 209L193.41 209L195.48 205.78L196.37 205.78L196.37 209L197.63 209L197.63 205.78ZM209.39 201.6L208.12 201.6L204.71 207L204.71 201.6L203.45 201.6L203.45 209L204.71 209L208.12 203.6L208.12 209L209.39 209L209.39 201.6ZM211.79 207.42L211.36 207.96L210.78 207.96L210.78 211.17L212.04 211.17L212.04 209L217.2 209L217.2 211.17L218.47 211.17L218.47 207.96L217.52 207.96L217.52 201.6L212.75 201.6L212.63 204.55Q212.53 206.47 211.79 207.42ZM233.53 201.6L232.27 201.6L228.86 207L228.86 201.6L227.59 201.6L227.59 209L228.86 209L232.27 203.6L232.27 209L233.53 209L233.53 201.6ZM238.58 202.62L241.06 202.62L241.06 201.6L234.88 201.6L234.88 202.62L237.31 202.62L237.31 209L238.58 209L238.58 202.62ZM259.85 201.6L259.85 209L263.19 209Q264.56 209 265.31 208.46Q265.6 208.25 265.77 207.97Q266.06 207.53 266.06 206.9Q266.06 206.53 265.92 206.23Q265.82 206 265.65 205.8Q265.57 205.72 265.48 205.64Q265.12 205.31 264.57 205.19Q265.18 204.97 265.48 204.56Q265.64 204.34 265.72 204.1Q265.79 203.88 265.79 203.63Q265.79 203.07 265.54 202.66Q265.35 202.34 265 202.12Q264.21 201.6 262.74 201.6L259.85 201.6ZM280.5 209L281.76 209L281.76 201.6L280.5 201.6L280.5 204.81L277.1 204.81L277.1 201.6L275.83 201.6L275.83 209L277.1 209L277.1 205.84L280.5 205.84L280.5 209ZM285.17 205.84L286.09 205.84L288.66 209L290.26 209L287.09 205.15L290.02 201.6L288.49 201.6L286 204.73L285.17 204.73L285.17 201.6L283.9 201.6L283.9 209L285.17 209L285.17 205.84ZM186.29 207.35Q185.71 206.61 185.71 205.38Q185.71 203.99 186.29 203.25Q186.58 202.87 186.96 202.68Q187.34 202.5 187.8 202.5Q188.29 202.5 188.67 202.7Q189.05 202.89 189.33 203.26Q189.91 204.01 189.91 205.23Q189.91 206.59 189.34 207.34Q189.08 207.7 188.72 207.89Q188.32 208.1 187.81 208.1Q187.31 208.1 186.92 207.89Q186.56 207.71 186.29 207.35ZM243.94 202.65Q244.27 202.5 244.65 202.5Q245.19 202.5 245.57 202.74Q245.76 202.86 245.91 203.03Q246.38 203.56 246.43 204.52L246.43 204.62L242.73 204.62Q242.85 203.62 243.37 203.06Q243.62 202.78 243.94 202.65ZM269.24 207.35Q268.67 206.61 268.67 205.38Q268.67 203.99 269.24 203.25Q269.53 202.87 269.92 202.68Q270.29 202.5 270.75 202.5Q271.24 202.5 271.63 202.7Q272 202.89 272.29 203.26Q272.87 204.01 272.87 205.23Q272.87 206.59 272.3 207.34Q272.03 207.7 271.67 207.89Q271.27 208.1 270.77 208.1Q270.26 208.1 269.87 207.89Q269.51 207.71 269.24 207.35ZM144.6 203.26Q145.13 203.98 145.13 205.24Q145.13 206.66 144.59 207.38Q144.33 207.73 143.98 207.91Q143.61 208.1 143.15 208.1Q142.55 208.1 142.12 207.84Q141.69 207.59 141.41 207.09L141.41 203.55Q141.71 203.03 142.16 202.77Q142.58 202.54 143.13 202.54Q143.64 202.54 144.02 202.75Q144.35 202.93 144.6 203.26ZM165.32 204.46Q165.18 204.21 165.18 203.87Q165.18 203.57 165.3 203.34Q165.4 203.13 165.6 202.97Q166.01 202.62 166.72 202.62L168.54 202.62L168.54 205.08L166.53 205.08Q165.99 205.07 165.64 204.81Q165.59 204.78 165.55 204.74Q165.41 204.62 165.32 204.46ZM262.75 204.74L261.12 204.74L261.12 202.62L262.84 202.62Q264.07 202.65 264.4 203.21Q264.53 203.41 264.53 203.7Q264.53 203.96 264.41 204.16Q264.07 204.74 262.75 204.74ZM216.25 207.96L212.85 207.96Q213.78 206.74 213.9 204.53L213.97 202.77L216.25 202.77L216.25 207.96ZM61.98 207.92L61.98 204.34L64.17 204.34Q65.23 204.34 65.72 204.87Q66.13 205.31 66.13 206.14Q66.13 206.75 65.84 207.17Q65.74 207.32 65.6 207.45Q65.57 207.47 65.54 207.5Q65.02 207.92 64.15 207.92L61.98 207.92ZM72.09 207.99Q71.88 208.03 71.66 208.03Q71.12 208.03 70.75 207.78Q70.69 207.74 70.64 207.7Q70.51 207.59 70.43 207.46Q70.24 207.18 70.24 206.77Q70.24 206.42 70.39 206.16Q70.83 205.41 72.57 205.41L73.56 205.41L73.56 206.92Q73.52 207.01 73.47 207.09Q73.23 207.47 72.78 207.72Q72.45 207.92 72.09 207.99ZM101.6 207.99Q101.39 208.03 101.17 208.03Q100.63 208.03 100.26 207.78Q100.2 207.74 100.15 207.7Q100.03 207.59 99.94 207.46Q99.75 207.18 99.75 206.77Q99.75 206.42 99.9 206.16Q100.35 205.41 102.08 205.41L103.07 205.41L103.07 206.92Q103.03 207.01 102.98 207.09Q102.74 207.47 102.3 207.72Q101.96 207.92 101.6 207.99ZM116.78 207.99Q116.56 208.03 116.34 208.03Q115.81 208.03 115.44 207.78Q115.38 207.74 115.33 207.7Q115.2 207.59 115.12 207.46Q114.93 207.18 114.93 206.77Q114.93 206.42 115.08 206.16Q115.52 205.41 117.25 205.41L118.24 205.41L118.24 206.92Q118.2 207.01 118.15 207.09Q117.91 207.47 117.47 207.72Q117.14 207.92 116.78 207.99ZM222.77 207.99Q222.56 208.03 222.33 208.03Q221.8 208.03 221.43 207.78Q221.37 207.74 221.32 207.7Q221.19 207.59 221.11 207.46Q220.92 207.18 220.92 206.77Q220.92 206.42 221.07 206.16Q221.51 205.41 223.24 205.41L224.24 205.41L224.24 206.92Q224.19 207.01 224.15 207.09Q223.91 207.47 223.46 207.72Q223.13 207.92 222.77 207.99ZM294.25 207.99Q294.04 208.03 293.82 208.03Q293.28 208.03 292.91 207.78Q292.85 207.74 292.8 207.7Q292.68 207.59 292.59 207.46Q292.4 207.18 292.4 206.77Q292.4 206.42 292.55 206.16Q293 205.41 294.73 205.41L295.72 205.41L295.72 206.92Q295.68 207.01 295.63 207.09Q295.39 207.47 294.95 207.72Q294.61 207.92 294.25 207.99ZM261.12 207.98L261.12 205.75L263.16 205.75Q264.27 205.75 264.62 206.27Q264.79 206.51 264.79 206.86Q264.79 207.18 264.64 207.41Q264.55 207.57 264.39 207.68Q264 207.98 263.21 207.98L261.12 207.98ZM177.81 210.49L178.52 210.98Q179.04 210.56 179.37 209.87Q179.71 209.18 179.71 208.49L179.71 207.5L178.48 207.5L178.48 208.64Q178.47 208.73 178.47 208.81Q178.39 209.67 177.81 210.49ZM138.16 219.27Q137.74 220.14 137.74 221.23L137.74 221.32Q137.74 222.83 138.46 223.82Q138.56 223.96 138.67 224.09Q139.04 224.5 139.5 224.75Q140.2 225.13 141.11 225.13Q141.92 225.13 142.58 224.82Q142.73 224.74 142.87 224.65Q143.14 224.49 143.36 224.28Q143.78 223.88 144.06 223.32Q144.47 222.46 144.47 221.38L144.47 221.29Q144.47 219.75 143.73 218.75Q143.64 218.62 143.54 218.51Q143.17 218.1 142.72 217.85Q142.02 217.46 141.09 217.46Q140.33 217.46 139.69 217.75Q139.52 217.83 139.35 217.93Q139.16 218.05 138.99 218.2Q138.48 218.63 138.16 219.27ZM156.19 219.27Q155.76 220.14 155.76 221.23L155.76 221.32Q155.76 222.83 156.48 223.82Q156.58 223.96 156.7 224.09Q157.07 224.5 157.52 224.75Q158.22 225.13 159.13 225.13Q159.94 225.13 160.6 224.82Q160.75 224.74 160.9 224.65Q161.16 224.49 161.38 224.28Q161.81 223.88 162.08 223.32Q162.5 222.46 162.5 221.38L162.5 221.29Q162.5 219.75 161.76 218.75Q161.67 218.62 161.56 218.51Q161.2 218.1 160.75 217.85Q160.04 217.46 159.12 217.46Q158.35 217.46 157.72 217.75Q157.55 217.83 157.38 217.93Q157.19 218.05 157.01 218.2Q156.51 218.63 156.19 219.27ZM173.51 224.71Q174.25 225.13 175.23 225.13Q176.34 225.13 177.12 224.63Q177.64 224.28 178.02 223.7L177.25 223.1Q176.94 223.5 176.55 223.76Q176.49 223.79 176.43 223.83Q175.97 224.1 175.3 224.1Q174.78 224.1 174.35 223.89Q174.02 223.73 173.75 223.43Q173.66 223.33 173.58 223.22Q173.13 222.6 173.11 221.66L178.12 221.66L178.12 221.13Q178.12 219.36 177.32 218.41Q177.08 218.13 176.79 217.93Q176.09 217.46 175.07 217.46Q174.69 217.46 174.33 217.56Q173.86 217.68 173.44 217.95Q173.23 218.08 173.05 218.25Q172.57 218.68 172.26 219.3Q171.84 220.17 171.84 221.27L171.84 221.5Q171.84 222.87 172.49 223.78Q172.62 223.97 172.78 224.14Q173.11 224.49 173.51 224.71ZM185.06 224.1Q185.83 223.07 185.83 221.38L185.83 221.26Q185.83 219.47 185.05 218.47Q184.71 218.03 184.27 217.78Q183.69 217.46 182.94 217.46Q182.05 217.46 181.42 217.86Q181.07 218.08 180.8 218.42L180.73 217.6L179.58 217.6L179.58 227.84L180.84 227.84L180.84 224.28Q181.05 224.51 181.3 224.68Q181.98 225.13 182.96 225.13Q183.66 225.13 184.21 224.84Q184.69 224.59 185.06 224.1ZM191.82 224.22Q191.89 224.78 192 225L193.33 225L193.33 224.89Q193.07 224.28 193.07 223.27L193.07 219.86Q193.05 219.05 192.66 218.49Q192.51 218.28 192.31 218.1Q192.31 218.09 192.3 218.09Q191.58 217.46 190.31 217.46Q189.51 217.46 188.84 217.76L188.83 217.76Q188.16 218.06 187.77 218.57L187.77 218.58Q187.42 219.03 187.38 219.5Q187.37 219.58 187.37 219.65L188.64 219.65Q188.64 219.5 188.69 219.37Q188.78 219.06 189.1 218.82Q189.15 218.79 189.2 218.76Q189.63 218.48 190.24 218.48Q190.99 218.48 191.39 218.86Q191.4 218.87 191.41 218.87Q191.49 218.96 191.56 219.06Q191.8 219.41 191.8 219.93L191.8 220.51L190.57 220.51Q188.98 220.51 188.1 221.15Q187.73 221.42 187.51 221.79Q187.22 222.28 187.22 222.94Q187.22 223.44 187.41 223.85Q187.59 224.22 187.92 224.51Q188.06 224.64 188.22 224.74Q188.84 225.13 189.72 225.13Q190.25 225.13 190.72 224.96Q191.33 224.73 191.82 224.22ZM201.47 219.27Q201.04 220.14 201.04 221.23L201.04 221.32Q201.04 222.83 201.76 223.82Q201.86 223.96 201.98 224.09Q202.35 224.5 202.8 224.75Q203.51 225.13 204.41 225.13Q205.23 225.13 205.88 224.82Q206.04 224.74 206.18 224.65Q206.44 224.49 206.66 224.28Q207.09 223.88 207.36 223.32Q207.78 222.46 207.78 221.38L207.78 221.29Q207.78 219.75 207.04 218.75Q206.95 218.62 206.84 218.51Q206.48 218.1 206.03 217.85Q205.32 217.46 204.4 217.46Q203.64 217.46 203 217.75Q202.83 217.83 202.66 217.93Q202.47 218.05 202.3 218.2Q201.79 218.63 201.47 219.27ZM214.84 224.1Q215.61 223.07 215.61 221.38L215.61 221.26Q215.61 219.47 214.84 218.47Q214.5 218.03 214.05 217.78Q213.48 217.46 212.73 217.46Q211.84 217.46 211.2 217.86Q210.85 218.08 210.58 218.42L210.52 217.6L209.36 217.6L209.36 227.84L210.63 227.84L210.63 224.28Q210.84 224.51 211.09 224.68Q211.76 225.13 212.75 225.13Q213.45 225.13 213.99 224.84Q214.48 224.59 214.84 224.1ZM221.61 224.22Q221.68 224.78 221.78 225L223.11 225L223.11 224.89Q222.85 224.28 222.85 223.27L222.85 219.86Q222.83 219.05 222.44 218.49Q222.3 218.28 222.1 218.1Q222.09 218.09 222.08 218.09Q221.36 217.46 220.1 217.46Q219.29 217.46 218.62 217.76L218.62 217.76Q217.95 218.06 217.56 218.57L217.55 218.58Q217.21 219.03 217.16 219.5Q217.16 219.58 217.16 219.65L218.43 219.65Q218.43 219.5 218.47 219.37Q218.57 219.06 218.89 218.82Q218.93 218.79 218.98 218.76Q219.41 218.48 220.02 218.48Q220.78 218.48 221.18 218.86Q221.18 218.87 221.19 218.87Q221.28 218.96 221.35 219.06Q221.59 219.41 221.59 219.93L221.59 220.51L220.36 220.51Q218.76 220.51 217.88 221.15Q217.51 221.42 217.3 221.79Q217.01 222.28 217.01 222.94Q217.01 223.44 217.2 223.85Q217.37 224.22 217.71 224.51Q217.85 224.64 218 224.74Q218.63 225.13 219.5 225.13Q220.04 225.13 220.51 224.96Q221.11 224.73 221.61 224.22ZM148.92 218.62L151.4 218.62L151.4 217.6L145.22 217.6L145.22 218.62L147.66 218.62L147.66 225L148.92 225L148.92 218.62ZM168.87 225L170.13 225L170.13 217.6L164.19 217.6L164.19 225L165.46 225L165.46 218.64L168.87 218.64L168.87 225ZM197.95 218.62L200.44 218.62L200.44 217.6L194.26 217.6L194.26 218.62L196.69 218.62L196.69 225L197.95 225L197.95 218.62ZM139.58 223.35Q139.01 222.61 139.01 221.38Q139.01 219.99 139.58 219.25Q139.87 218.87 140.25 218.68Q140.63 218.5 141.09 218.5Q141.58 218.5 141.97 218.7Q142.34 218.89 142.63 219.26Q143.21 220.01 143.21 221.23Q143.21 222.59 142.64 223.34Q142.37 223.7 142.01 223.89Q141.61 224.1 141.11 224.1Q140.6 224.1 140.21 223.89Q139.85 223.71 139.58 223.35ZM157.61 223.35Q157.03 222.61 157.03 221.38Q157.03 219.99 157.61 219.25Q157.9 218.87 158.28 218.68Q158.66 218.5 159.12 218.5Q159.61 218.5 159.99 218.7Q160.37 218.89 160.65 219.26Q161.23 220.01 161.23 221.23Q161.23 222.59 160.66 223.34Q160.39 223.7 160.04 223.89Q159.64 224.1 159.13 224.1Q158.63 224.1 158.24 223.89Q157.88 223.71 157.61 223.35ZM174.36 218.65Q174.69 218.5 175.07 218.5Q175.61 218.5 175.99 218.74Q176.18 218.86 176.33 219.03Q176.8 219.56 176.85 220.52L176.85 220.62L173.15 220.62Q173.27 219.62 173.79 219.06Q174.05 218.78 174.36 218.65ZM202.89 223.35Q202.32 222.61 202.32 221.38Q202.32 219.99 202.89 219.25Q203.18 218.87 203.56 218.68Q203.94 218.5 204.4 218.5Q204.89 218.5 205.28 218.7Q205.65 218.89 205.94 219.26Q206.51 220.01 206.51 221.23Q206.51 222.59 205.95 223.34Q205.68 223.7 205.32 223.89Q204.92 224.1 204.41 224.1Q203.91 224.1 203.52 223.89Q203.16 223.71 202.89 223.35ZM184.03 219.26Q184.56 219.98 184.56 221.24Q184.56 222.66 184.03 223.38Q183.77 223.73 183.42 223.91Q183.05 224.1 182.58 224.1Q181.99 224.1 181.55 223.84Q181.12 223.59 180.84 223.09L180.84 219.55Q181.14 219.03 181.59 218.77Q182.01 218.54 182.57 218.54Q183.07 218.54 183.46 218.75Q183.78 218.93 184.03 219.26ZM213.81 219.26Q214.35 219.98 214.35 221.24Q214.35 222.66 213.81 223.38Q213.55 223.73 213.2 223.91Q212.83 224.1 212.36 224.1Q211.77 224.1 211.33 223.84Q210.91 223.59 210.63 223.09L210.63 219.55Q210.93 219.03 211.38 218.77Q211.8 218.54 212.35 218.54Q212.85 218.54 213.24 218.75Q213.57 218.93 213.81 219.26ZM190.34 223.99Q190.12 224.03 189.9 224.03Q189.37 224.03 189 223.78Q188.94 223.74 188.88 223.7Q188.76 223.59 188.67 223.46Q188.49 223.18 188.49 222.77Q188.49 222.42 188.64 222.16Q189.08 221.41 190.81 221.41L191.8 221.41L191.8 222.92Q191.76 223.01 191.71 223.09Q191.47 223.47 191.03 223.72Q190.69 223.92 190.34 223.99ZM220.12 223.99Q219.91 224.03 219.69 224.03Q219.15 224.03 218.78 223.78Q218.72 223.74 218.67 223.7Q218.54 223.59 218.46 223.46Q218.27 223.18 218.27 222.77Q218.27 222.42 218.42 222.16Q218.86 221.41 220.6 221.41L221.59 221.41L221.59 222.92Q221.55 223.01 221.5 223.09Q221.26 223.47 220.81 223.72Q220.48 223.92 220.12 223.99Z" fill="#797979" fill-opacity="1.000000" fill-rule="evenodd"/>
		<path id="Вы забронировали номер!" d="M141.51 150.84C140.6 152.17 140.14 154.04 140.14 156.46C140.14 158.63 140.62 160.3 141.58 161.46C142.54 162.62 143.83 163.2 145.45 163.2C146.5 163.2 147.42 162.99 148.22 162.57C149.03 162.14 149.65 161.52 150.1 160.7C150.56 159.87 150.78 158.84 150.78 157.6C150.78 156.01 150.4 154.82 149.63 154.02Q149.35 153.72 149.02 153.5Q148 152.81 146.53 152.81C145.98 152.81 145.49 152.9 145.07 153.08C144.64 153.25 144.28 153.46 144 153.72C143.71 153.97 143.49 154.22 143.33 154.47L143.19 154.47C143.24 153.57 143.38 152.88 143.62 152.4C143.85 151.92 144.19 151.57 144.63 151.35C145.07 151.13 145.62 150.96 146.29 150.86Q146.91 150.75 147.69 150.67C148.22 150.6 148.75 150.54 149.29 150.48C149.83 150.41 150.33 150.35 150.78 150.3L150.45 147.7C149.67 147.79 148.92 147.88 148.2 147.97C147.47 148.05 146.75 148.15 146.05 148.27C143.94 148.65 142.42 149.5 141.51 150.84ZM91.55 149.51C90.58 148.98 89.14 148.71 87.23 148.71L82.79 148.71L82.79 163L88.13 163C89.75 163 91.03 162.63 91.96 161.9C92.9 161.16 93.37 160.15 93.37 158.85C93.37 158.11 93.25 157.51 93.02 157.06C92.8 156.6 92.49 156.25 92.11 156.02C91.72 155.78 91.29 155.61 90.81 155.52L90.81 155.42C91.51 155.3 92.06 154.96 92.44 154.4C92.82 153.84 93.01 153.15 93.01 152.34C93.01 150.99 92.52 150.05 91.55 149.51ZM89.4 153.96C89.06 154.24 88.45 154.38 87.57 154.38L85.81 154.38L85.81 151.19L87.41 151.19C88.27 151.19 88.91 151.31 89.31 151.56C89.71 151.8 89.91 152.19 89.91 152.74C89.91 153.27 89.74 153.68 89.4 153.96ZM136.57 152.81Q135.41 151.86 133.21 151.86C132.43 151.86 131.69 151.94 130.97 152.12Q129.9 152.38 129.03 152.83L130.01 154.86C130.51 154.63 131.02 154.44 131.53 154.28C132.03 154.13 132.55 154.06 133.08 154.06C133.62 154.06 134.03 154.19 134.33 154.46Q134.36 154.48 134.38 154.5Q134.79 154.9 134.79 155.72L134.79 156.19L132.88 156.26C131.26 156.31 130.04 156.61 129.23 157.17C128.41 157.72 128 158.57 128 159.73C128 160.91 128.32 161.78 128.96 162.35C129.6 162.91 130.41 163.2 131.38 163.2Q132.75 163.2 133.52 162.8C134.04 162.53 134.54 162.1 135.01 161.52L135.09 161.52L135.67 163L137.75 163L137.75 155.72Q137.75 154.1 136.95 153.17Q136.78 152.97 136.57 152.81ZM251.39 152.81Q250.23 151.86 248.03 151.86C247.25 151.86 246.51 151.94 245.79 152.12Q244.72 152.38 243.85 152.83L244.83 154.86C245.33 154.63 245.84 154.44 246.35 154.28C246.85 154.13 247.37 154.06 247.9 154.06C248.44 154.06 248.85 154.19 249.15 154.46Q249.18 154.48 249.2 154.5Q249.61 154.9 249.61 155.72L249.61 156.19L247.7 156.26C246.08 156.31 244.86 156.61 244.05 157.17C243.23 157.72 242.83 158.57 242.83 159.73C242.83 160.91 243.14 161.78 243.78 162.35C244.42 162.91 245.23 163.2 246.2 163.2Q247.57 163.2 248.34 162.8C248.86 162.53 249.36 162.1 249.83 161.52L249.91 161.52L250.49 163L252.57 163L252.57 155.72Q252.57 154.1 251.77 153.17Q251.6 152.97 251.39 152.81ZM123.81 152.19C123.13 151.98 122.39 151.88 121.61 151.88C120.59 151.88 119.71 151.95 118.97 152.11C118.22 152.26 117.53 152.46 116.91 152.7L117.78 154.78C118.33 154.55 118.91 154.38 119.52 154.25C120.14 154.13 120.71 154.07 121.23 154.07C122.01 154.07 122.58 154.17 122.92 154.35C123.27 154.53 123.44 154.79 123.44 155.13C123.44 155.57 123.17 155.87 122.63 156.04C122.1 156.2 121.33 156.28 120.35 156.28L119.24 156.28L119.24 158.34L120.41 158.34C122.47 158.34 123.51 158.77 123.51 159.64C123.51 160.1 123.23 160.43 122.67 160.62C122.11 160.8 121.42 160.89 120.61 160.89C119.86 160.89 119.15 160.81 118.49 160.64C117.83 160.46 117.28 160.27 116.83 160.06L116.83 162.52C117.81 162.97 119.21 163.2 121.03 163.2Q122.89 163.2 124.07 162.73C124.87 162.41 125.46 162 125.84 161.49Q126.22 160.97 126.34 160.4Q126.41 160.12 126.41 159.82C126.41 159.27 126.3 158.83 126.08 158.51C125.85 158.18 125.56 157.92 125.18 157.73C124.81 157.53 124.39 157.38 123.93 157.28L123.93 157.17C124.59 157 125.12 156.72 125.51 156.34C125.91 155.95 126.1 155.43 126.1 154.78Q126.1 154.09 125.81 153.57Q125.67 153.34 125.47 153.14C125.05 152.71 124.5 152.39 123.81 152.19ZM162.31 153.31C161.55 152.35 160.55 151.88 159.33 151.88C158.54 151.88 157.9 152.04 157.4 152.36C156.91 152.67 156.52 153.05 156.23 153.49L156.08 153.49L155.66 152.08L153.24 152.08L153.24 167.8L156.23 167.8L156.23 163.39C156.23 162.89 156.17 162.35 156.07 161.79L156.23 161.79C156.52 162.16 156.9 162.48 157.36 162.77C157.83 163.05 158.46 163.2 159.24 163.2Q160.13 163.2 160.86 162.86Q161.65 162.5 162.26 161.75C163.05 160.78 163.44 159.37 163.44 157.52C163.44 155.66 163.06 154.26 162.31 153.31ZM174.39 161.72C175.35 160.73 175.82 159.33 175.82 157.52C175.82 156.3 175.6 155.28 175.15 154.45Q174.7 153.62 174.03 153.05Q173.69 152.76 173.29 152.54C172.5 152.1 171.59 151.88 170.57 151.88C168.91 151.88 167.61 152.36 166.66 153.34Q166.59 153.41 166.53 153.49Q165.24 154.93 165.24 157.52C165.24 158.73 165.47 159.76 165.92 160.61C166.38 161.45 167 162.1 167.79 162.54C168.59 162.98 169.49 163.2 170.51 163.2C172.14 163.2 173.44 162.7 174.39 161.72ZM214.99 153.31C214.23 152.35 213.23 151.88 212.01 151.88C211.22 151.88 210.58 152.04 210.08 152.36C209.59 152.67 209.2 153.05 208.91 153.49L208.76 153.49L208.34 152.08L205.92 152.08L205.92 167.8L208.91 167.8L208.91 163.39C208.91 162.89 208.85 162.35 208.75 161.79L208.91 161.79C209.2 162.16 209.58 162.48 210.04 162.77C210.51 163.05 211.14 163.2 211.92 163.2Q212.81 163.2 213.54 162.86Q214.33 162.5 214.94 161.75C215.73 160.78 216.12 159.37 216.12 157.52C216.12 155.66 215.74 154.26 214.99 153.31ZM227.07 161.72C228.03 160.73 228.5 159.33 228.5 157.52C228.5 156.3 228.28 155.28 227.83 154.45Q227.38 153.62 226.71 153.05Q226.37 152.76 225.97 152.54C225.18 152.1 224.27 151.88 223.25 151.88C221.59 151.88 220.29 152.36 219.34 153.34Q219.27 153.41 219.21 153.49Q217.92 154.93 217.92 157.52C217.92 158.73 218.15 159.76 218.6 160.61C219.06 161.45 219.68 162.1 220.47 162.54C221.27 162.98 222.17 163.2 223.19 163.2C224.82 163.2 226.12 162.7 227.07 161.72ZM95.98 152.08L95.98 163L100.51 163Q103.07 163 104.18 162.05C104.93 161.41 105.31 160.57 105.31 159.51Q105.31 158.5 104.84 157.81Q104.56 157.4 104.11 157.1C103.31 156.56 102.08 156.3 100.41 156.3L98.97 156.3L98.97 152.08L95.98 152.08ZM106.89 152.08L106.89 163L109.87 163L109.87 152.08L106.89 152.08ZM181.27 156.28L181.27 152.08L178.28 152.08L178.28 163L181.27 163L181.27 158.49L185.43 158.49L185.43 163L188.41 163L188.41 152.08L185.43 152.08L185.43 156.28L181.27 156.28ZM194.37 157.24C194.39 156.9 194.4 156.62 194.4 156.39L194.4 152.08L191.52 152.08L191.52 163L195.11 163L200.13 155.35C200.11 155.56 200.09 155.85 200.05 156.23Q200 156.79 199.97 157.44C199.94 157.88 199.93 158.27 199.93 158.64L199.93 163L202.81 163L202.81 152.08L199.22 152.08L194.18 159.73Q194.2 159.58 194.24 159.18C194.27 158.91 194.3 158.6 194.32 158.26Q194.35 157.74 194.37 157.24ZM240.09 156.44C240.46 156.02 240.65 155.52 240.65 154.93C240.65 154.21 240.45 153.65 240.05 153.23C239.66 152.82 239.13 152.53 238.45 152.35C237.78 152.17 237.02 152.08 236.16 152.08L230.96 152.08L230.96 163L236.16 163Q237.89 163 238.95 162.58C239.65 162.3 240.17 161.91 240.49 161.42C240.82 160.92 240.99 160.36 240.99 159.73C240.99 159.07 240.76 158.52 240.29 158.1Q240.27 158.08 240.25 158.06Q239.57 157.45 238.46 157.32L238.46 157.23C239.19 157.11 239.73 156.85 240.09 156.44ZM262.42 163L265.4 163L265.4 152.08L257.15 152.08C257.03 153.84 256.89 155.28 256.75 156.4C256.6 157.53 256.44 158.41 256.25 159.03Q255.98 159.98 255.68 160.34C255.48 160.58 255.27 160.7 255.03 160.7C254.69 160.7 254.37 160.63 254.07 160.5L254.07 162.87Q254.72 163.2 255.76 163.2C256.62 163.2 257.3 162.9 257.81 162.31C258.31 161.71 258.71 160.76 259 159.47Q259.43 157.52 259.69 154.31L262.42 154.31L262.42 163ZM271.37 157.24C271.39 156.9 271.4 156.62 271.4 156.39L271.4 152.08L268.52 152.08L268.52 163L272.11 163L277.13 155.35C277.11 155.56 277.09 155.85 277.05 156.23Q277 156.79 276.97 157.44C276.94 157.88 276.93 158.27 276.93 158.64L276.93 163L279.81 163L279.81 152.08L276.22 152.08L271.18 159.73Q271.2 159.58 271.24 159.18C271.27 158.91 271.3 158.6 271.32 158.26Q271.35 157.74 271.37 157.24ZM236.05 154.18C237.1 154.18 237.62 154.51 237.62 155.17C237.62 155.59 237.46 155.88 237.13 156.07C236.81 156.25 236.33 156.34 235.7 156.34L233.95 156.34L233.95 154.18L236.05 154.18ZM156.73 154.98C157.05 154.5 157.59 154.25 158.37 154.25C159.73 154.25 160.41 155.33 160.41 157.48C160.41 158.54 160.24 159.36 159.91 159.92Q159.69 160.31 159.35 160.53Q158.96 160.77 158.4 160.77C157.58 160.77 157.01 160.49 156.7 159.92C156.38 159.36 156.23 158.55 156.23 157.5L156.23 157.17C156.25 156.19 156.42 155.46 156.73 154.98ZM209.41 154.98C209.73 154.5 210.27 154.25 211.05 154.25C212.41 154.25 213.09 155.33 213.09 157.48C213.09 158.54 212.92 159.36 212.59 159.92Q212.37 160.31 212.03 160.53Q211.64 160.77 211.08 160.77C210.26 160.77 209.69 160.49 209.38 159.92C209.06 159.36 208.91 158.55 208.91 157.5L208.91 157.17C208.93 156.19 209.1 155.46 209.41 154.98ZM168.81 159.96Q168.29 159.13 168.29 157.52Q168.29 155.89 168.81 155.09Q168.97 154.85 169.17 154.68Q169.69 154.27 170.53 154.27Q171.39 154.27 171.91 154.7Q172.11 154.86 172.26 155.09C172.61 155.63 172.79 156.44 172.79 157.52C172.79 158.59 172.61 159.41 172.26 159.96C171.9 160.52 171.33 160.79 170.55 160.79C169.75 160.79 169.17 160.52 168.81 159.96ZM221.49 159.96Q220.97 159.13 220.97 157.52Q220.97 155.89 221.49 155.09Q221.65 154.85 221.85 154.68Q222.37 154.27 223.21 154.27Q224.07 154.27 224.59 154.7Q224.79 154.86 224.94 155.09C225.29 155.63 225.47 156.44 225.47 157.52C225.47 158.59 225.29 159.41 224.94 159.96C224.58 160.52 224.01 160.79 223.23 160.79C222.43 160.79 221.85 160.52 221.49 159.96ZM147.16 160.13C146.76 160.56 146.25 160.77 145.63 160.77C145 160.77 144.51 160.58 144.15 160.19C143.8 159.79 143.55 159.28 143.41 158.66C143.26 158.03 143.19 157.38 143.19 156.7C143.28 156.51 143.45 156.28 143.7 156.03C143.96 155.77 144.27 155.53 144.64 155.33C145 155.12 145.4 155.02 145.83 155.02C146.53 155.02 147.03 155.27 147.32 155.79C147.6 156.3 147.75 156.99 147.75 157.85C147.75 158.95 147.55 159.71 147.16 160.13ZM85.81 160.5L85.81 156.77L87.69 156.77C88.65 156.77 89.31 156.94 89.67 157.27C90.04 157.59 90.23 158.02 90.23 158.56C90.23 159.14 90.04 159.61 89.68 159.97C89.33 160.32 88.69 160.5 87.79 160.5L85.81 160.5ZM131.62 158.5C132 158.18 132.67 158 133.63 157.98L134.79 157.94L134.79 158.84C134.79 159.53 134.57 160.07 134.12 160.45C133.68 160.82 133.14 161.01 132.51 161.01Q131.87 161.01 131.47 160.72C131.2 160.53 131.07 160.21 131.07 159.75C131.07 159.24 131.25 158.82 131.62 158.5ZM246.44 158.5C246.82 158.18 247.49 158 248.45 157.98L249.61 157.94L249.61 158.84C249.61 159.53 249.39 160.07 248.94 160.45C248.5 160.82 247.97 161.01 247.33 161.01Q246.69 161.01 246.29 160.72C246.02 160.53 245.89 160.21 245.89 159.75C245.89 159.24 246.07 158.82 246.44 158.5ZM101.78 160.62C101.41 160.83 100.93 160.93 100.35 160.93L98.97 160.93L98.97 158.36L100.31 158.36C101.65 158.36 102.33 158.75 102.33 159.55C102.33 160.05 102.14 160.4 101.78 160.62ZM237.4 158.65C237.74 158.84 237.91 159.15 237.91 159.58C237.91 160.07 237.72 160.42 237.35 160.63Q236.81 160.93 235.96 160.93L233.95 160.93L233.95 158.36L235.9 158.36C236.57 158.36 237.07 158.45 237.4 158.65ZM215.4 175.45L218.56 175.45L218.29 185.64L215.69 185.64L215.4 175.45ZM170.05 188.72C171 187.73 171.48 186.33 171.48 184.52C171.48 183.3 171.25 182.28 170.8 181.45C170.35 180.61 169.73 179.98 168.94 179.54C168.15 179.1 167.25 178.88 166.22 178.88C164.57 178.88 163.27 179.36 162.32 180.34C161.37 181.31 160.9 182.7 160.9 184.52C160.9 185.73 161.12 186.76 161.58 187.61C162.03 188.45 162.66 189.1 163.45 189.54C164.24 189.98 165.15 190.2 166.16 190.2C167.8 190.2 169.09 189.7 170.05 188.72ZM198.9 180.17C198.02 179.31 196.83 178.88 195.32 178.88C194.29 178.88 193.39 179.09 192.62 179.52C191.85 179.94 191.24 180.58 190.81 181.43C190.37 182.27 190.16 183.34 190.16 184.61Q190.16 186.49 190.88 187.73C191.36 188.56 192.02 189.18 192.86 189.59C193.7 189.99 194.67 190.2 195.76 190.2C196.6 190.2 197.31 190.13 197.91 190.01C198.5 189.88 199.07 189.68 199.6 189.41L199.6 187.11C198.99 187.41 198.39 187.62 197.82 187.76C197.25 187.9 196.61 187.97 195.9 187.97C195.06 187.97 194.4 187.73 193.93 187.26C193.46 186.77 193.21 186.11 193.18 185.27L200.22 185.27L200.22 183.83C200.22 182.25 199.78 181.03 198.9 180.17ZM211.7 180.31C210.94 179.35 209.95 178.88 208.72 178.88C207.93 178.88 207.29 179.04 206.8 179.36C206.31 179.67 205.91 180.05 205.62 180.49L205.48 180.49L205.06 179.08L202.64 179.08L202.64 194.8L205.62 194.8L205.62 190.4C205.62 189.89 205.57 189.35 205.46 188.79L205.62 188.79C205.91 189.16 206.29 189.48 206.76 189.77C207.23 190.05 207.85 190.2 208.64 190.2Q209.52 190.2 210.25 189.86Q211.04 189.5 211.66 188.75C212.44 187.78 212.84 186.37 212.84 184.52C212.84 182.66 212.46 181.26 211.7 180.31ZM151.3 183.28L151.3 179.08L148.32 179.08L148.32 190L151.3 190L151.3 185.49L155.46 185.49L155.46 190L158.44 190L158.44 179.08L155.46 179.08L155.46 183.28L151.3 183.28ZM187.7 190L187.7 179.08L183.64 179.08L180.88 186.47L178.16 179.08L173.94 179.08L173.94 190L176.72 190L176.72 184.72C176.72 184.11 176.71 183.56 176.69 183.07C176.67 182.57 176.63 182.1 176.58 181.66L176.66 181.66L179.72 190L181.96 190L184.98 181.68L185.04 181.68C185 182.1 184.97 182.57 184.95 183.08C184.93 183.58 184.92 184.1 184.92 184.63L184.92 190L187.7 190ZM193.91 181.56C194.29 181.18 194.77 181 195.34 181C196.05 181 196.56 181.21 196.9 181.65C197.23 182.08 197.41 182.63 197.42 183.3L193.24 183.3C193.31 182.51 193.53 181.93 193.91 181.56ZM206.13 181.98C206.44 181.5 206.98 181.26 207.76 181.26C209.12 181.26 209.8 182.33 209.8 184.48C209.8 185.54 209.64 186.36 209.31 186.92Q209.08 187.31 208.75 187.53Q208.35 187.77 207.8 187.77C206.97 187.77 206.4 187.49 206.09 186.92C205.78 186.36 205.62 185.55 205.62 184.5L205.62 184.18C205.65 183.19 205.82 182.46 206.13 181.98ZM164.47 186.96Q163.94 186.13 163.94 184.52Q163.94 182.9 164.47 182.09C164.82 181.54 165.39 181.27 166.18 181.27C166.98 181.27 167.56 181.54 167.91 182.09C168.26 182.63 168.44 183.44 168.44 184.52C168.44 185.59 168.26 186.41 167.91 186.96C167.56 187.52 166.99 187.79 166.2 187.79C165.4 187.79 164.82 187.52 164.47 186.96ZM218.69 188.48C218.68 189.42 217.9 190.18 216.99 190.18C216.05 190.18 215.27 189.42 215.28 188.48C215.27 187.54 216.05 186.79 216.99 186.79C217.9 186.79 218.68 187.54 218.69 188.48Z" fill="#039BE5" fill-opacity="1.000000" fill-rule="evenodd"/>
		<rect id="reliability" rx="-0.500000" width="89.000000" height="89.000000" transform="translate(144.500000 52.500000)" fill="#FFFFFF" fill-opacity="0"/>
		<g clip-path="url(#clip112_7)">
			<path id="Vector" d="M232.52 88.59C231.82 87.87 230.97 87.38 230.03 87.14C230.59 86.25 230.87 85.22 230.83 84.15C230.73 81.35 228.32 79.07 225.46 79.07L215.02 79.07L215.01 63.42C215.01 60.03 212.25 57.27 208.86 57.27C205.47 57.27 202.71 60.03 202.71 63.42L202.71 67.56C202.71 68.62 202.48 69.65 202.07 70.58C194.33 70.29 188.12 63.91 188.12 56.1L188.12 54.19C188.12 52.98 187.13 52 185.92 52L163.24 52C162.03 52 161.05 52.98 161.05 54.19L161.05 55.69C161.05 63.68 154.54 70.19 146.54 70.19L146.19 70.19C144.98 70.19 144 71.17 144 72.39L144 98.75C144 115.62 157.72 129.34 174.58 129.34C186.55 129.34 197.35 122.4 202.35 111.59L220.73 111.59C221.93 111.59 223.1 111.09 223.95 110.23C224.78 109.38 225.23 108.27 225.21 107.11C225.19 106.51 225.06 105.95 224.84 105.43L225.46 105.43C228.32 105.43 230.73 103.15 230.83 100.35C230.87 99.27 230.58 98.23 230.02 97.34C232.23 96.74 233.91 94.77 233.99 92.44C234.04 90.99 233.52 89.63 232.52 88.59ZM174.58 126.7C159.17 126.7 146.63 114.16 146.63 98.75L146.63 72.83C156.04 72.78 163.68 65.11 163.68 55.69L163.68 54.63L185.48 54.63L185.48 56.1C185.48 64.75 191.93 71.93 200.27 73.07C199.96 73.36 199.62 73.63 199.25 73.86L192.04 78.45C191.41 78.85 190.67 79.07 189.92 79.07L188.3 79.07C187.81 77.44 186.3 76.25 184.51 76.25L177.13 76.25C175.41 76.25 173.95 77.35 173.4 78.89L166.93 78.89C165.04 78.89 163.51 80.43 163.51 82.32L163.51 104.99C163.51 106.88 165.04 108.42 166.93 108.42L173.18 108.42L173.18 121.39C161.33 120.71 151.91 110.85 151.91 98.84L151.91 77C160.96 76.34 168.18 68.95 168.56 59.82L173.18 59.82L173.18 71.42C173.18 72.15 173.77 72.74 174.49 72.74C175.22 72.74 175.81 72.15 175.81 71.42L175.81 58.5C175.81 57.77 175.22 57.18 174.49 57.18L167.26 57.18C166.53 57.18 165.94 57.77 165.94 58.5L165.94 59.06C165.94 67.52 159.05 74.41 150.59 74.41C149.86 74.41 149.27 75 149.27 75.73L149.27 98.84C149.27 112.75 160.59 124.07 174.49 124.07C175.22 124.07 175.81 123.48 175.81 122.75L175.81 110.92C176.12 111.01 176.44 111.06 176.78 111.06L184.51 111.06C185.81 111.06 186.95 110.44 187.68 109.47L189.08 110.27C190.6 111.13 192.32 111.59 194.07 111.59L199.42 111.59C194.64 120.83 185.1 126.7 174.58 126.7ZM173.18 105.78L166.93 105.78C166.5 105.78 166.14 105.43 166.14 104.99L166.14 82.32C166.14 81.88 166.5 81.53 166.93 81.53L173.18 81.53L173.18 105.78ZM228.63 94.89L218.35 94.89C217.62 94.89 217.03 95.48 217.03 96.2C217.03 96.93 217.62 97.52 218.35 97.52L225.56 97.52C226.28 97.52 226.95 97.81 227.46 98.33C227.96 98.85 228.22 99.53 228.19 100.26C228.14 101.66 226.92 102.8 225.46 102.8L220.81 102.8C220.78 102.8 220.75 102.8 220.72 102.8C220.69 102.8 220.67 102.8 220.64 102.8L218.35 102.8C217.62 102.8 217.03 103.39 217.03 104.11C217.03 104.84 217.62 105.43 218.35 105.43L220.64 105.43C220.67 105.43 220.69 105.43 220.72 105.43C220.75 105.43 220.78 105.43 220.81 105.43C221.76 105.43 222.55 106.21 222.57 107.16C222.58 107.61 222.4 108.04 222.07 108.38C221.71 108.74 221.23 108.95 220.73 108.95L194.07 108.95C192.78 108.95 191.5 108.61 190.38 107.98L188.47 106.89L188.47 103.91C188.47 103.18 187.88 102.59 187.15 102.59C186.42 102.59 185.83 103.18 185.83 103.91L185.83 107.1C185.83 107.83 185.24 108.42 184.51 108.42L176.78 108.42C176.25 108.42 175.81 107.99 175.81 107.45L175.81 80.21C175.81 79.48 176.4 78.89 177.13 78.89L184.51 78.89C185.24 78.89 185.83 79.48 185.83 80.21L185.83 97.76C185.83 98.49 186.42 99.07 187.15 99.07C187.88 99.07 188.47 98.49 188.47 97.76L188.47 81.7L189.92 81.7C191.18 81.7 192.4 81.35 193.46 80.67L200.66 76.09C203.59 74.22 205.34 71.04 205.34 67.56L205.34 63.42C205.34 61.48 206.92 59.91 208.86 59.91C210.8 59.91 212.37 61.48 212.37 63.42L212.39 79.51C212.39 80.72 213.37 81.7 214.58 81.7L225.46 81.7C226.92 81.7 228.14 82.84 228.19 84.24C228.22 84.97 227.96 85.65 227.46 86.17C226.95 86.69 226.28 86.98 225.56 86.98L218.35 86.98C217.62 86.98 217.03 87.57 217.03 88.29C217.03 89.02 217.62 89.61 218.35 89.61L228.72 89.61C229.44 89.61 230.12 89.9 230.62 90.42C231.12 90.94 231.38 91.62 231.36 92.35C231.31 93.75 230.08 94.89 228.63 94.89Z" fill="#039BE5" fill-opacity="1.000000" fill-rule="nonzero"/>
		</g>
		<path id="Rectangle 119" d="M0 212L181 294.6L360 212L360 400L0 400L0 212Z" fill="#039BE5" fill-opacity="1.000000" fill-rule="nonzero"/>
	</g>
</svg>
