<svg width="30.000000" height="30.000000" viewBox="0 0 30 30" fill="none" xmlns="http://www.w3.org/2000/svg" xmlns:xlink="http://www.w3.org/1999/xlink">
	<desc>
			Created with Pixso.
	</desc>
	<defs>
		<clipPath id="clip27_28">
			<rect id="community" rx="-0.500000" width="29.000000" height="29.000000" transform="translate(0.500000 0.500000)" fill="white" fill-opacity="0"/>
		</clipPath>
	</defs>
	<rect id="community" rx="-0.500000" width="29.000000" height="29.000000" transform="translate(0.500000 0.500000)" fill="#FFFFFF" fill-opacity="0"/>
	<g clip-path="url(#clip27_28)">
		<path id="Vector" d="M13.76 5.33C13.76 4.03 12.71 2.98 11.42 2.98C10.13 2.98 9.08 4.03 9.08 5.33C9.08 6.62 10.13 7.67 11.42 7.67C12.71 7.67 13.76 6.62 13.76 5.33ZM11.42 6.5C10.77 6.5 10.25 5.97 10.25 5.33C10.25 4.68 10.77 4.16 11.42 4.16C12.07 4.16 12.59 4.68 12.59 5.33C12.59 5.97 12.07 6.5 11.42 6.5Z" fill="#393939" fill-opacity="1.000000" fill-rule="nonzero"/>
		<path id="Vector" d="M6.56 5.33C6.56 4.03 5.51 2.98 4.21 2.98C2.92 2.98 1.87 4.03 1.87 5.33C1.87 6.62 2.92 7.67 4.21 7.67C5.51 7.67 6.56 6.62 6.56 5.33ZM4.21 6.5C3.57 6.5 3.04 5.97 3.04 5.33C3.04 4.68 3.57 4.16 4.21 4.16C4.86 4.16 5.39 4.68 5.39 5.33C5.39 5.97 4.86 6.5 4.21 6.5Z" fill="#393939" fill-opacity="1.000000" fill-rule="nonzero"/>
		<path id="Vector" d="M20.91 5.33C20.91 4.03 19.86 2.98 18.57 2.98C17.28 2.98 16.23 4.03 16.23 5.33C16.23 6.62 17.28 7.67 18.57 7.67C19.86 7.67 20.91 6.62 20.91 5.33ZM18.57 6.5C17.92 6.5 17.4 5.97 17.4 5.33C17.4 4.68 17.92 4.16 18.57 4.16C19.22 4.16 19.74 4.68 19.74 5.33C19.74 5.97 19.22 6.5 18.57 6.5Z" fill="#393939" fill-opacity="1.000000" fill-rule="nonzero"/>
		<path id="Vector" d="M28.12 5.33C28.12 4.03 27.07 2.98 25.78 2.98C24.48 2.98 23.43 4.03 23.43 5.33C23.43 6.62 24.48 7.67 25.78 7.67C27.07 7.67 28.12 6.62 28.12 5.33ZM25.78 6.5C25.13 6.5 24.6 5.97 24.6 5.33C24.6 4.68 25.13 4.16 25.78 4.16C26.42 4.16 26.95 4.68 26.95 5.33C26.95 5.97 26.42 6.5 25.78 6.5Z" fill="#393939" fill-opacity="1.000000" fill-rule="nonzero"/>
		<path id="Vector" d="M28.12 22.32C28.12 22.64 27.86 22.91 27.53 22.91C27.21 22.91 26.95 22.64 26.95 22.32C26.95 22 27.21 21.73 27.53 21.73C27.86 21.73 28.12 22 28.12 22.32Z" fill="#393939" fill-opacity="1.000000" fill-rule="evenodd"/>
		<path id="Vector" d="M25.78 7.67C24.35 7.67 22.94 8.42 22.15 9.7C21.42 8.49 20.09 7.67 18.57 7.67C17.04 7.67 15.72 8.5 15 9.68C14.27 8.5 12.95 7.67 11.42 7.67C9.9 7.67 8.57 8.49 7.84 9.7C7.05 8.42 5.64 7.67 4.21 7.67C2 7.67 0 9.46 0 11.77L0 17.63C0 17.96 0.26 18.22 0.58 18.22L1.87 18.22L1.87 26.42C1.87 26.74 2.13 27.01 2.46 27.01L5.97 27.01C6.29 27.01 6.56 26.74 6.56 26.42L6.56 18.22L9.08 18.22L9.08 26.42C9.08 26.74 9.34 27.01 9.66 27.01L13.18 27.01C13.5 27.01 13.76 26.74 13.76 26.42L13.76 18.22L16.23 18.22L16.23 26.42C16.23 26.74 16.49 27.01 16.81 27.01L20.33 27.01C20.65 27.01 20.91 26.74 20.91 26.42L20.91 18.22L23.43 18.22L23.43 26.42C23.43 26.74 23.7 27.01 24.02 27.01L27.53 27.01C27.86 27.01 28.12 26.74 28.12 26.42L28.12 24.96C28.12 24.63 27.86 24.37 27.53 24.37C27.21 24.37 26.95 24.63 26.95 24.96L26.95 25.83L24.6 25.83L24.6 17.63C24.6 17.31 24.34 17.05 24.02 17.05L22.73 17.05L22.73 11.77C22.73 10.18 24.12 8.84 25.78 8.84C27.43 8.84 28.82 10.18 28.82 11.77L28.82 17.05L27.53 17.05C27.21 17.05 26.95 17.31 26.95 17.63L26.95 19.68C26.95 20.01 27.21 20.27 27.53 20.27C27.86 20.27 28.12 20.01 28.12 19.68L28.12 18.22L29.41 18.22C29.73 18.22 30 17.96 30 17.63L30 11.77C30 9.46 27.99 7.67 25.78 7.67ZM5.97 17.05C5.65 17.05 5.39 17.31 5.39 17.63L5.39 25.83L3.04 25.83L3.04 17.63C3.04 17.31 2.78 17.05 2.46 17.05L1.17 17.05L1.17 11.77C1.17 10.18 2.56 8.84 4.21 8.84C5.87 8.84 7.26 10.18 7.26 11.77L7.26 17.05L5.97 17.05ZM13.18 17.05C12.86 17.05 12.59 17.31 12.59 17.63L12.59 25.83L10.25 25.83L10.25 17.63C10.25 17.31 9.99 17.05 9.66 17.05L8.43 17.05L8.43 11.77C8.43 10.16 9.77 8.84 11.42 8.84C13.07 8.84 14.41 10.16 14.41 11.77L14.41 17.05L13.18 17.05ZM20.33 17.05C20 17.05 19.74 17.31 19.74 17.63L19.74 25.83L17.4 25.83L17.4 17.63C17.4 17.31 17.13 17.05 16.81 17.05L15.58 17.05L15.58 11.77C15.58 10.16 16.92 8.84 18.57 8.84C20.22 8.84 21.56 10.16 21.56 11.77L21.56 17.05L20.33 17.05Z" fill="#393939" fill-opacity="1.000000" fill-rule="nonzero"/>
	</g>
</svg>
