<svg width="30.000000" height="24.448853" viewBox="0 0 30 24.4489" fill="none" xmlns="http://www.w3.org/2000/svg" xmlns:xlink="http://www.w3.org/1999/xlink">
	<desc>
			Created with Pixso.
	</desc>
	<defs/>
	<path id="Vector" d="M29.53 7.19C30.24 8.07 30.13 9.45 29.25 10.18C28.43 10.85 27.3 10.7 26.65 9.9C23.69 6.23 19.46 4.12 15.04 4.12L14.97 4.12C10.53 4.14 6.29 6.29 3.35 10.01C2.71 10.83 1.57 10.97 0.76 10.32C-0.14 9.58 -0.25 8.21 0.45 7.33C4 2.83 9.2 0.02 14.96 0L15.04 0C17.83 0 20.52 0.64 23.05 1.91C23.26 2.02 23.35 2.28 23.24 2.5C23.13 2.71 22.87 2.8 22.65 2.69C20.25 1.49 17.69 0.87 15.04 0.87L14.96 0.87C9.67 0.9 4.63 3.45 1.14 7.87C0.72 8.4 0.81 9.23 1.31 9.63C1.75 9.98 2.32 9.9 2.66 9.47C5.77 5.53 10.25 3.27 14.97 3.24L15.04 3.24C19.73 3.24 24.21 5.47 27.33 9.35C27.68 9.78 28.26 9.86 28.68 9.5C29.19 9.09 29.27 8.27 28.84 7.74C27.55 6.14 26.05 4.78 24.38 3.69C24.18 3.56 24.12 3.28 24.26 3.08C24.39 2.88 24.66 2.82 24.86 2.95C26.61 4.09 28.18 5.52 29.53 7.19Z" fill="#393939" fill-opacity="1.000000" fill-rule="nonzero"/>
	<path id="Vector" d="M24.72 11.03C25.5 11.92 25.39 13.35 24.5 14.09C23.72 14.73 22.62 14.63 21.94 13.85C20.1 11.77 17.65 10.62 15.03 10.62C15.01 10.62 15 10.62 14.99 10.62C12.35 10.63 9.89 11.8 8.07 13.92C7.39 14.7 6.29 14.81 5.51 14.18L5.51 14.18C4.6 13.44 4.48 12.02 5.26 11.12C7.72 8.26 11.17 6.51 14.97 6.49C18.78 6.47 22.24 8.21 24.72 11.03ZM23.93 13.41C24.45 12.98 24.51 12.13 24.06 11.61C21.66 8.87 18.45 7.37 15.03 7.37C15.01 7.37 14.99 7.37 14.97 7.37C11.52 7.39 8.31 8.92 5.92 11.69C5.71 11.95 5.6 12.29 5.63 12.65C5.66 12.99 5.82 13.3 6.06 13.49C6.06 13.49 6.06 13.49 6.06 13.49L6.06 13.49C6.48 13.83 7.04 13.76 7.4 13.34C9.4 11.03 12.09 9.75 14.98 9.74L15.03 9.74C17.9 9.74 20.59 10.99 22.6 13.27C22.96 13.69 23.53 13.75 23.93 13.41Z" fill="#393939" fill-opacity="1.000000" fill-rule="nonzero"/>
	<path id="Vector" d="M19.75 14.81C20.19 15.2 20.44 15.78 20.44 16.39C20.44 17.05 20.17 17.64 19.69 18.04C18.97 18.63 18 18.58 17.33 18C16.93 17.65 16.49 17.41 16.01 17.26C15.77 17.19 15.64 16.94 15.71 16.71C15.78 16.48 16.03 16.35 16.26 16.42C16.86 16.6 17.41 16.91 17.9 17.33C18.26 17.64 18.76 17.67 19.13 17.36C19.7 16.89 19.71 15.94 19.17 15.47C17.97 14.42 16.53 13.87 15.01 13.87L14.98 13.87C13.45 13.87 12.01 14.44 10.81 15.51C10.27 16 10.31 16.95 10.87 17.4C11.24 17.7 11.74 17.68 12.1 17.36C12.65 16.87 13.31 16.52 14 16.35C14.24 16.3 14.48 16.44 14.54 16.68C14.59 16.91 14.45 17.15 14.21 17.21C13.66 17.34 13.13 17.62 12.68 18.02C12.01 18.61 11.03 18.67 10.31 18.08C9.32 17.28 9.29 15.69 10.23 14.85C11.57 13.66 13.25 12.99 14.98 12.99L15.01 12.99C16.73 12.99 18.41 13.63 19.75 14.81Z" fill="#393939" fill-opacity="1.000000" fill-rule="nonzero"/>
	<path id="Vector" d="M15 19.89C16.25 19.89 17.27 20.91 17.27 22.17C17.27 23.42 16.25 24.44 15 24.44C13.74 24.44 12.72 23.42 12.72 22.17C12.72 20.91 13.74 19.89 15 19.89ZM16.39 22.17C16.39 21.39 15.76 20.77 15 20.77C14.23 20.77 13.6 21.39 13.6 22.17C13.6 22.94 14.23 23.56 15 23.56C15.76 23.56 16.39 22.94 16.39 22.17Z" fill="#393939" fill-opacity="1.000000" fill-rule="nonzero"/>
</svg>
