<svg width="13.422852" height="7.750000" viewBox="0 0 13.4229 7.75" fill="none" xmlns="http://www.w3.org/2000/svg" xmlns:xlink="http://www.w3.org/1999/xlink">
	<desc>
			Created with Pixso.
	</desc>
	<defs/>
	<path id="Vector" d="M0.26 1.53L6.21 7.55C6.28 7.62 6.36 7.67 6.44 7.7C6.52 7.73 6.61 7.75 6.71 7.75C6.8 7.75 6.89 7.73 6.97 7.7C7.05 7.67 7.13 7.62 7.2 7.55L13.17 1.53C13.33 1.36 13.42 1.16 13.42 0.91C13.42 0.66 13.33 0.44 13.15 0.26C12.98 0.08 12.77 0 12.53 0C12.3 0 12.09 0.08 11.91 0.26L6.71 5.51L1.5 0.26C1.33 0.1 1.13 0.01 0.89 0.01C0.65 0.01 0.44 0.1 0.26 0.28C0.08 0.46 0 0.67 0 0.91C0 1.14 0.08 1.35 0.26 1.53Z" fill="#F57520" fill-opacity="1.000000" fill-rule="nonzero"/>
</svg>
