<svg width="30.000000" height="30.000000" viewBox="0 0 30 30" fill="none" xmlns="http://www.w3.org/2000/svg" xmlns:xlink="http://www.w3.org/1999/xlink">
	<desc>
			Created with Pixso.
	</desc>
	<defs>
		<clipPath id="clip20_20">
			<rect id="parking" rx="-0.500000" width="29.000000" height="29.000000" transform="translate(0.500000 0.500000)" fill="white" fill-opacity="0"/>
		</clipPath>
	</defs>
	<rect id="parking" rx="-0.500000" width="29.000000" height="29.000000" transform="translate(0.500000 0.500000)" fill="#FFFFFF" fill-opacity="0"/>
	<g clip-path="url(#clip20_20)">
		<path id="Vector" d="M7.47 1.84L5.12 1.84C2.29 1.84 0 4.14 0 6.97L0 26.3C0 27.52 0.98 28.5 2.19 28.5L10.4 28.5C11.61 28.5 12.59 27.52 12.59 26.3L12.59 6.97C12.59 4.14 10.29 1.84 7.47 1.84ZM4.64 2.75C4.38 4.69 2.84 6.22 0.9 6.49C1.12 4.53 2.68 2.97 4.64 2.75ZM0.87 14.23C0.87 13.43 1.05 12.67 1.36 11.99L2.52 13.63C2.4 13.83 2.34 14.05 2.34 14.29L2.34 20.74C2.34 20.94 2.38 21.13 2.46 21.3L1.12 23.21C0.97 22.99 0.87 22.72 0.87 22.44L0.87 14.23ZM3.66 22.06L8.93 22.06C9.13 22.06 9.32 22.01 9.49 21.93L10.74 23.71C10.63 23.74 10.52 23.75 10.4 23.75L2.19 23.75C2.07 23.75 1.96 23.74 1.85 23.71L3.1 21.93C3.27 22.01 3.46 22.06 3.66 22.06ZM3.22 20.74L3.22 14.29C3.22 14.05 3.41 13.85 3.66 13.85L8.93 13.85C9.17 13.85 9.37 14.05 9.37 14.29L9.37 20.74C9.37 20.98 9.17 21.18 8.93 21.18L3.66 21.18C3.41 21.18 3.22 20.98 3.22 20.74ZM9.4 13.06C9.25 13 9.1 12.97 8.93 12.97L3.66 12.97C3.49 12.97 3.34 13 3.19 13.06L1.84 11.14C2.82 9.74 4.45 8.81 6.29 8.81C8.13 8.81 9.76 9.74 10.74 11.14L9.4 13.06ZM11.71 26.3C11.71 27.03 11.12 27.62 10.4 27.62L2.19 27.62C1.47 27.62 0.87 27.03 0.87 26.3L0.87 24.19C1.24 24.47 1.7 24.63 2.19 24.63L10.4 24.63C10.89 24.63 11.35 24.47 11.71 24.19L11.71 26.3ZM11.71 22.44C11.71 22.72 11.62 22.99 11.46 23.21L10.12 21.3C10.2 21.13 10.25 20.94 10.25 20.74L10.25 14.29C10.25 14.05 10.18 13.83 10.07 13.63L11.23 11.99C11.54 12.67 11.71 13.43 11.71 14.23L11.71 22.44ZM11.71 11.03C10.62 9.18 8.6 7.93 6.29 7.93C3.99 7.93 1.97 9.18 0.87 11.03L0.87 7.38C3.33 7.11 5.27 5.17 5.53 2.72L7.23 2.72C7.36 3.88 7.86 4.96 8.68 5.81C9.5 6.65 10.56 7.19 11.71 7.35L11.71 11.03ZM8.13 2.77C9.99 3.06 11.46 4.57 11.68 6.46C9.84 6.13 8.39 4.62 8.13 2.77Z" fill="#393939" fill-opacity="1.000000" fill-rule="nonzero"/>
		<path id="Vector" d="M24.87 1.84L22.52 1.84C19.7 1.84 17.4 4.14 17.4 6.97L17.4 26.3C17.4 27.52 18.38 28.5 19.59 28.5L27.8 28.5C29.01 28.5 30 27.52 30 26.3L30 6.97C30 4.14 27.7 1.84 24.87 1.84ZM29.08 6.46C27.25 6.13 25.8 4.62 25.53 2.77C27.39 3.06 28.86 4.57 29.08 6.46ZM22.04 2.75C21.78 4.69 20.25 6.22 18.3 6.49C18.53 4.53 20.08 2.97 22.04 2.75ZM18.28 14.23C18.28 13.43 18.45 12.67 18.76 11.99L19.92 13.63C19.81 13.83 19.74 14.05 19.74 14.29L19.74 20.74C19.74 20.94 19.79 21.13 19.87 21.3L18.53 23.21C18.37 22.99 18.28 22.72 18.28 22.44L18.28 14.23ZM21.06 22.06L26.33 22.06C26.53 22.06 26.72 22.01 26.89 21.93L28.14 23.71C28.03 23.74 27.92 23.75 27.8 23.75L19.59 23.75C19.47 23.75 19.36 23.74 19.25 23.71L20.5 21.93C20.67 22.01 20.86 22.06 21.06 22.06ZM20.62 20.74L20.62 14.29C20.62 14.05 20.82 13.85 21.06 13.85L26.33 13.85C26.58 13.85 26.77 14.05 26.77 14.29L26.77 20.74C26.77 20.98 26.58 21.18 26.33 21.18L21.06 21.18C20.82 21.18 20.62 20.98 20.62 20.74ZM26.8 13.06C26.65 13 26.5 12.97 26.33 12.97L21.06 12.97C20.89 12.97 20.74 13 20.59 13.06L19.25 11.14C20.23 9.74 21.86 8.81 23.7 8.81C25.54 8.81 27.17 9.74 28.15 11.14L26.8 13.06ZM29.12 26.3C29.12 27.03 28.52 27.62 27.8 27.62L19.59 27.62C18.87 27.62 18.28 27.03 18.28 26.3L18.28 24.19C18.64 24.47 19.1 24.63 19.59 24.63L27.8 24.63C28.29 24.63 28.75 24.47 29.12 24.19L29.12 26.3ZM29.12 22.44C29.12 22.72 29.02 22.99 28.87 23.21L27.53 21.3C27.61 21.13 27.65 20.94 27.65 20.74L27.65 14.29C27.65 14.05 27.59 13.83 27.47 13.63L28.63 11.99C28.94 12.67 29.12 13.43 29.12 14.23L29.12 22.44ZM29.12 11.03C28.02 9.18 26 7.93 23.7 7.93C21.39 7.93 19.37 9.18 18.28 11.03L18.28 7.38C20.73 7.11 22.67 5.17 22.93 2.72L24.64 2.72C24.76 3.88 25.26 4.96 26.08 5.81C26.9 6.65 27.96 7.19 29.12 7.35L29.12 11.03Z" fill="#393939" fill-opacity="1.000000" fill-rule="nonzero"/>
		<path id="Vector" d="M14.58 29.12L15.46 29.12L15.46 30L14.58 30L14.58 29.12Z" fill="#393939" fill-opacity="1.000000" fill-rule="nonzero"/>
		<path id="Vector" d="M14.58 1.75L15.46 1.75L15.46 28.24L14.58 28.24L14.58 1.75Z" fill="#393939" fill-opacity="1.000000" fill-rule="nonzero"/>
		<path id="Vector" d="M14.58 0L15.46 0L15.46 0.87L14.58 0.87L14.58 0Z" fill="#393939" fill-opacity="1.000000" fill-rule="nonzero"/>
		<path id="Vector" d="M1.72 25.86L2.6 25.86L2.6 26.74L1.72 26.74L1.72 25.86Z" fill="#393939" fill-opacity="1.000000" fill-rule="nonzero"/>
		<path id="Vector" d="M9.99 25.86L10.86 25.86L10.86 26.74L9.99 26.74L9.99 25.86Z" fill="#393939" fill-opacity="1.000000" fill-rule="nonzero"/>
		<path id="Vector" d="M19.24 25.86L20.12 25.86L20.12 26.74L19.24 26.74L19.24 25.86Z" fill="#393939" fill-opacity="1.000000" fill-rule="nonzero"/>
		<path id="Vector" d="M27.5 25.86L28.38 25.86L28.38 26.74L27.5 26.74L27.5 25.86Z" fill="#393939" fill-opacity="1.000000" fill-rule="nonzero"/>
	</g>
</svg>
