<svg width="30.000000" height="30.000000" viewBox="0 0 30 30" fill="none" xmlns="http://www.w3.org/2000/svg" xmlns:xlink="http://www.w3.org/1999/xlink">
	<desc>
			Created with Pixso.
	</desc>
	<defs>
		<clipPath id="clip24_602">
			<rect id="telegram" rx="-0.500000" width="29.000000" height="29.000000" transform="translate(0.500000 0.500000)" fill="white" fill-opacity="0"/>
		</clipPath>
	</defs>
	<rect id="telegram" rx="-0.500000" width="29.000000" height="29.000000" transform="translate(0.500000 0.500000)" fill="#FFFFFF" fill-opacity="0"/>
	<g clip-path="url(#clip24_602)">
		<path id="Vector" d="M30 15C30 23.28 23.28 30 15 30C6.71 30 0 23.28 0 15C0 6.71 6.71 0 15 0C23.28 0 30 6.71 30 15Z" fill="#039BE5" fill-opacity="1.000000" fill-rule="evenodd"/>
		<path id="Vector" d="M6.86 14.67L21.32 9.09C21.99 8.85 22.58 9.26 22.36 10.27L22.36 10.27L19.9 21.87C19.72 22.7 19.23 22.9 18.54 22.51L14.79 19.74L12.99 21.49C12.79 21.69 12.62 21.86 12.23 21.86L12.5 18.04L19.45 11.76C19.75 11.49 19.38 11.34 18.98 11.61L10.39 17.02L6.69 15.86C5.88 15.61 5.87 15.06 6.86 14.67Z" fill="#FFFFFF" fill-opacity="1.000000" fill-rule="nonzero"/>
	</g>
</svg>
