<svg width="22.968750" height="28.125000" viewBox="0 0 22.9688 28.125" fill="none" xmlns="http://www.w3.org/2000/svg" xmlns:xlink="http://www.w3.org/1999/xlink">
	<desc>
			Created with Pixso.
	</desc>
	<defs/>
	<path id="Vector" d="M22.96 15.93L22.96 0.46C22.96 0.34 22.91 0.22 22.83 0.13C22.74 0.04 22.62 0 22.5 0L12.18 0C12.11 0 12.04 0.01 11.97 0.04L11.25 0.41L10.52 0.04C10.45 0.01 10.38 0 10.31 0L0.46 0C0.34 0 0.22 0.04 0.13 0.13C0.04 0.22 0 0.34 0 0.46L0 15.93C0 16.01 0.01 16.08 0.04 16.14L0.41 16.87L0.04 17.6C0.01 17.66 0 17.73 0 17.81L0 26.25C0 26.37 0.04 26.49 0.13 26.58C0.22 26.66 0.34 26.71 0.46 26.71L1.53 26.71L1.89 27.8C1.93 27.89 1.98 27.97 2.06 28.03C2.14 28.09 2.24 28.12 2.34 28.12L3.75 28.12C3.84 28.12 3.94 28.09 4.02 28.03C4.1 27.97 4.16 27.89 4.19 27.8L4.55 26.71L18.41 26.71L18.77 27.8C18.8 27.89 18.86 27.97 18.94 28.03C19.02 28.09 19.12 28.12 19.21 28.12L20.62 28.12C20.72 28.12 20.81 28.09 20.89 28.03C20.97 27.97 21.03 27.89 21.06 27.8L21.43 26.71L22.5 26.71C22.62 26.71 22.74 26.66 22.83 26.58C22.91 26.49 22.96 26.37 22.96 26.25L22.96 17.81C22.96 17.73 22.95 17.66 22.91 17.6L22.55 16.87L22.91 16.14C22.95 16.08 22.96 16.01 22.96 15.93ZM16.69 17.34L16.53 17.81L5.96 17.81L5.8 17.34L16.69 17.34ZM11.71 2.99L12.18 3.15L12.18 14.19L11.71 14.34L11.71 2.99ZM10.78 14.34L10.31 14.19L10.31 3.15L10.78 2.99L10.78 14.34ZM0.93 0.93L10.2 0.93L10.78 1.22L10.78 2L9.69 2.36C9.6 2.39 9.52 2.45 9.46 2.53C9.4 2.61 9.37 2.71 9.37 2.81L9.37 14.53C9.37 14.62 9.4 14.72 9.46 14.8C9.52 14.88 9.6 14.94 9.69 14.97L10.78 15.33L10.78 16.4L1.22 16.4L0.93 15.82L0.93 0.93ZM3.41 27.18L2.68 27.18L2.52 26.71L3.56 26.71L3.41 27.18ZM20.28 27.18L19.55 27.18L19.4 26.71L20.44 26.71L20.28 27.18ZM22.03 25.78L0.93 25.78L0.93 17.92L1.22 17.34L4.81 17.34L5.18 18.42C5.21 18.52 5.27 18.6 5.35 18.66C5.43 18.71 5.52 18.75 5.62 18.75L16.87 18.75C16.97 18.75 17.06 18.71 17.14 18.66C17.22 18.6 17.28 18.52 17.31 18.42L17.68 17.34L21.74 17.34L22.03 17.92L22.03 25.78ZM22.03 15.82L21.74 16.4L11.71 16.4L11.71 15.33L12.8 14.97C12.89 14.94 12.97 14.88 13.03 14.8C13.09 14.72 13.12 14.62 13.12 14.53L13.12 2.81C13.12 2.71 13.09 2.61 13.03 2.53C12.97 2.45 12.89 2.39 12.8 2.36L11.71 2L11.71 1.22L12.29 0.93L22.03 0.93L22.03 15.82Z" fill="#393939" fill-opacity="1.000000" fill-rule="nonzero"/>
</svg>
