<svg width="30.000000" height="30.000000" viewBox="0 0 30 30" fill="none" xmlns="http://www.w3.org/2000/svg" xmlns:xlink="http://www.w3.org/1999/xlink">
	<desc>
			Created with Pixso.
	</desc>
	<defs>
		<clipPath id="clip20_32">
			<rect id="wifi-signal" rx="-0.500000" width="29.000000" height="29.000000" transform="translate(0.500000 0.500000)" fill="white" fill-opacity="0"/>
		</clipPath>
	</defs>
	<rect id="wifi-signal" rx="-0.500000" width="29.000000" height="29.000000" transform="translate(0.500000 0.500000)" fill="#FFFFFF" fill-opacity="0"/>
	<g clip-path="url(#clip20_32)">
		<path id="Vector" d="M29.53 9.97C30.24 10.85 30.13 12.22 29.25 12.96C28.43 13.63 27.3 13.48 26.65 12.68C23.69 9 19.46 6.9 15.04 6.9L14.97 6.9C10.53 6.92 6.29 9.06 3.35 12.79C2.71 13.6 1.57 13.75 0.76 13.09C-0.14 12.36 -0.25 10.98 0.45 10.1C4 5.6 9.2 2.8 14.96 2.77L15.04 2.77C17.83 2.77 20.52 3.41 23.05 4.68C23.26 4.79 23.35 5.06 23.24 5.27C23.13 5.49 22.87 5.58 22.65 5.47C20.25 4.26 17.69 3.65 15.04 3.65L14.96 3.65C9.67 3.67 4.63 6.23 1.14 10.65C0.72 11.18 0.81 12 1.31 12.41C1.75 12.76 2.32 12.67 2.66 12.24C5.77 8.31 10.25 6.04 14.97 6.02L15.04 6.02C19.73 6.02 24.21 8.24 27.33 12.13C27.68 12.55 28.26 12.63 28.68 12.28C29.19 11.87 29.27 11.04 28.84 10.52C27.55 8.92 26.05 7.55 24.38 6.46C24.18 6.33 24.12 6.06 24.26 5.86C24.39 5.65 24.66 5.6 24.86 5.73C26.61 6.87 28.18 8.29 29.53 9.97Z" fill="#393939" fill-opacity="1.000000" fill-rule="nonzero"/>
		<path id="Vector" d="M24.72 13.8C25.5 14.69 25.39 16.12 24.5 16.86C23.72 17.5 22.62 17.4 21.94 16.63C20.1 14.54 17.65 13.39 15.03 13.39C15.01 13.39 15 13.39 14.99 13.39C12.35 13.41 9.89 14.58 8.07 16.69C7.39 17.47 6.29 17.59 5.51 16.95L5.51 16.95C4.6 16.22 4.48 14.79 5.26 13.9C7.72 11.03 11.17 9.28 14.97 9.27C18.78 9.25 22.24 10.98 24.72 13.8ZM23.93 16.19C24.45 15.76 24.51 14.9 24.06 14.38C21.66 11.65 18.45 10.15 15.03 10.15C15.01 10.15 14.99 10.15 14.97 10.15C11.52 10.16 8.31 11.7 5.92 14.47C5.71 14.72 5.6 15.07 5.63 15.42C5.66 15.76 5.82 16.07 6.06 16.27C6.06 16.27 6.06 16.27 6.06 16.27L6.06 16.27C6.48 16.6 7.04 16.54 7.4 16.12C9.4 13.81 12.09 12.53 14.98 12.51L15.03 12.51C17.9 12.51 20.59 13.77 22.6 16.05C22.96 16.47 23.53 16.52 23.93 16.19Z" fill="#393939" fill-opacity="1.000000" fill-rule="nonzero"/>
		<path id="Vector" d="M19.75 17.59C20.19 17.97 20.44 18.55 20.44 19.17C20.44 19.82 20.17 20.42 19.69 20.81C18.97 21.41 18 21.35 17.33 20.77C16.93 20.43 16.49 20.18 16.01 20.04C15.77 19.96 15.64 19.72 15.71 19.49C15.78 19.26 16.03 19.12 16.26 19.19C16.86 19.38 17.41 19.68 17.9 20.11C18.26 20.42 18.76 20.45 19.13 20.14C19.7 19.67 19.71 18.72 19.17 18.25C17.97 17.2 16.53 16.64 15.01 16.64L14.98 16.64C13.45 16.65 12.01 17.22 10.81 18.29C10.27 18.77 10.31 19.72 10.87 20.18C11.24 20.48 11.74 20.45 12.1 20.13C12.65 19.65 13.31 19.3 14 19.13C14.24 19.07 14.48 19.22 14.54 19.45C14.59 19.69 14.45 19.93 14.21 19.98C13.66 20.12 13.13 20.4 12.68 20.79C12.01 21.39 11.03 21.44 10.31 20.86C9.32 20.05 9.29 18.47 10.23 17.63C11.57 16.43 13.25 15.77 14.98 15.76L15.01 15.76C16.73 15.76 18.41 16.41 19.75 17.59Z" fill="#393939" fill-opacity="1.000000" fill-rule="nonzero"/>
		<path id="Vector" d="M15 22.66C16.25 22.66 17.27 23.68 17.27 24.94C17.27 26.2 16.25 27.22 15 27.22C13.74 27.22 12.72 26.2 12.72 24.94C12.72 23.68 13.74 22.66 15 22.66ZM16.39 24.94C16.39 24.17 15.76 23.54 15 23.54C14.23 23.54 13.6 24.17 13.6 24.94C13.6 25.71 14.23 26.34 15 26.34C15.76 26.34 16.39 25.71 16.39 24.94Z" fill="#393939" fill-opacity="1.000000" fill-rule="nonzero"/>
	</g>
</svg>
