<svg width="350.000000" height="196.000000" viewBox="0 0 350 196" fill="none" xmlns="http://www.w3.org/2000/svg" xmlns:xlink="http://www.w3.org/1999/xlink">
	<desc>
			Created with Pixso.
	</desc>
	<defs>
		<clipPath id="clip19_203">
			<rect id="commission" rx="-0.500000" width="69.000000" height="69.000000" transform="translate(140.500000 0.500000)" fill="white" fill-opacity="0"/>
		</clipPath>
	</defs>
	<path id="Эксклюзивно! Только при бронировании у нас вы можете быть уверены, что платите ТОЛЬКО собственнику" d="M189.42 150.43Q188.74 150.02 187.83 150.02Q187.24 150.02 186.72 150.22Q185.97 150.5 185.38 151.18Q185.55 150.13 186.11 149.5Q186.68 148.87 187.81 148.6L188.75 148.39Q189.6 148.19 189.98 147.71Q190.37 147.23 190.37 146.38L189.33 146.38Q189.33 146.61 189.23 146.79Q189.15 146.94 189 147.06Q188.66 147.3 187.7 147.47Q186.72 147.65 186.01 148.19Q185.51 148.58 185.15 149.15Q184.29 150.52 184.29 152.85L184.29 153.47Q184.29 154.95 185 155.9Q185.09 156.02 185.19 156.14Q185.51 156.48 185.9 156.71Q186.62 157.13 187.59 157.13Q188.45 157.13 189.13 156.79Q189.24 156.74 189.33 156.68Q189.62 156.51 189.85 156.28Q190.24 155.91 190.49 155.4Q190.9 154.58 190.9 153.53L190.9 153.41Q190.9 152.11 190.28 151.23Q190.18 151.09 190.06 150.96Q189.77 150.64 189.42 150.43ZM11.8 155.56Q11.21 155.07 11.02 153.84L9.7 153.84Q9.86 155.19 10.61 156.02Q10.73 156.15 10.87 156.27Q10.95 156.35 11.05 156.42Q11.99 157.13 13.48 157.13Q14.37 157.13 15.11 156.79Q15.31 156.69 15.51 156.57Q15.68 156.46 15.84 156.33Q16.49 155.8 16.88 154.95Q17.37 153.9 17.37 152.52L17.37 151.53Q17.37 150.16 16.88 149.1Q16.52 148.33 15.93 147.81Q15.72 147.63 15.48 147.48Q15.34 147.39 15.2 147.32Q14.38 146.91 13.36 146.91Q12.02 146.91 11.13 147.54Q10.96 147.65 10.82 147.79Q10.67 147.92 10.55 148.07Q9.84 148.91 9.7 150.24L11.02 150.24Q11.19 149.05 11.76 148.52Q11.79 148.49 11.82 148.47Q12.39 147.99 13.36 147.99Q14.11 147.99 14.67 148.32Q15.05 148.55 15.34 148.93Q16.05 149.87 16.05 151.49L12.13 151.49L12.13 152.57L16.05 152.57Q16.03 154.21 15.35 155.14Q15.03 155.57 14.6 155.8Q14.11 156.06 13.48 156.06Q12.38 156.06 11.8 155.56ZM100.46 154.19L101.6 154.19L101.7 147.04L100.37 147.04L100.46 154.19ZM110.86 148.12L114.06 148.12L114.06 147.04L106.36 147.04L106.36 148.12L109.56 148.12L109.56 157L110.86 157L110.86 148.12ZM30.24 155.96Q29.9 156.1 29.51 156.1Q28.87 156.1 28.43 155.81Q28.19 155.65 28 155.41Q27.48 154.72 27.48 153.44L27.48 153.2Q27.48 151.89 28.01 151.2Q28.2 150.93 28.46 150.77Q28.9 150.5 29.5 150.5Q29.94 150.5 30.3 150.68Q30.52 150.79 30.71 150.96Q30.89 151.13 31.01 151.34Q31.21 151.69 31.25 152.14L32.45 152.14Q32.41 151.41 32.09 150.84Q31.88 150.49 31.57 150.21Q31.33 149.99 31.06 149.84Q30.39 149.46 29.5 149.46Q28.54 149.46 27.83 149.88Q27.79 149.9 27.75 149.93Q27.51 150.07 27.32 150.25Q26.88 150.65 26.61 151.23Q26.21 152.07 26.21 153.15L26.21 153.37Q26.21 155.05 27.04 156.05Q27.07 156.09 27.1 156.12Q27.4 156.46 27.76 156.68Q28.5 157.13 29.51 157.13Q29.87 157.13 30.21 157.05Q30.58 156.97 30.93 156.79Q31.47 156.51 31.84 156.09Q31.93 155.99 32.01 155.87Q32.33 155.41 32.42 154.9Q32.44 154.78 32.45 154.66L31.25 154.66Q31.23 154.92 31.13 155.14Q30.99 155.45 30.69 155.69Q30.48 155.86 30.24 155.96ZM52.68 152.74L50.9 152.74L50.9 149.6L49.64 149.6L49.64 157L50.9 157L50.9 153.78L52.67 153.78Q52.76 154.94 53.33 155.77Q53.49 156 53.69 156.2Q54.01 156.52 54.39 156.74Q55.1 157.13 56.03 157.13Q56.82 157.13 57.47 156.83Q57.63 156.75 57.78 156.66Q57.99 156.54 58.17 156.38Q58.66 155.96 58.97 155.33Q59.39 154.46 59.39 153.38L59.39 152.98Q59.33 151.72 58.72 150.84Q58.57 150.63 58.39 150.44Q58.04 150.07 57.61 149.84Q56.91 149.46 56.02 149.46Q55.14 149.46 54.45 149.82Q54.06 150.03 53.73 150.36Q53.56 150.53 53.42 150.72Q52.8 151.54 52.68 152.74ZM92.3 151.27Q91.87 152.14 91.87 153.23L91.87 153.32Q91.87 154.83 92.59 155.82Q92.69 155.96 92.8 156.09Q93.17 156.5 93.63 156.75Q94.33 157.13 95.24 157.13Q96.05 157.13 96.71 156.82Q96.86 156.74 97.01 156.65Q97.27 156.49 97.49 156.28Q97.92 155.88 98.19 155.32Q98.6 154.46 98.6 153.38L98.6 153.29Q98.6 151.75 97.86 150.75Q97.77 150.62 97.67 150.51Q97.31 150.1 96.86 149.85Q96.15 149.46 95.23 149.46Q94.46 149.46 93.83 149.75Q93.65 149.83 93.49 149.93Q93.29 150.05 93.12 150.2Q92.62 150.63 92.3 151.27ZM114.75 151.27Q114.33 152.14 114.33 153.23L114.33 153.32Q114.33 154.83 115.04 155.82Q115.15 155.96 115.26 156.09Q115.63 156.5 116.09 156.75Q116.79 157.13 117.7 157.13Q118.51 157.13 119.17 156.82Q119.32 156.74 119.46 156.65Q119.73 156.49 119.95 156.28Q120.37 155.88 120.65 155.32Q121.06 154.46 121.06 153.38L121.06 153.29Q121.06 151.75 120.32 150.75Q120.23 150.62 120.13 150.51Q119.76 150.1 119.31 149.85Q118.61 149.46 117.68 149.46Q116.92 149.46 116.28 149.75Q116.11 149.83 115.94 149.93Q115.75 150.05 115.58 150.2Q115.07 150.63 114.75 151.27ZM145.74 151.27Q145.31 152.14 145.31 153.23L145.31 153.32Q145.31 154.83 146.03 155.82Q146.13 155.96 146.25 156.09Q146.62 156.5 147.07 156.75Q147.77 157.13 148.68 157.13Q149.49 157.13 150.15 156.82Q150.31 156.74 150.45 156.65Q150.71 156.49 150.93 156.28Q151.36 155.88 151.63 155.32Q152.05 154.46 152.05 153.38L152.05 153.29Q152.05 151.75 151.31 150.75Q151.22 150.62 151.11 150.51Q150.75 150.1 150.3 149.85Q149.59 149.46 148.67 149.46Q147.9 149.46 147.27 149.75Q147.1 149.83 146.93 149.93Q146.74 150.05 146.57 150.2Q146.06 150.63 145.74 151.27ZM170.65 156.1Q171.43 155.07 171.43 153.38L171.43 153.26Q171.43 151.47 170.65 150.47Q170.31 150.03 169.87 149.78Q169.29 149.46 168.54 149.46Q167.65 149.46 167.02 149.86Q166.67 150.08 166.4 150.42L166.33 149.6L165.18 149.6L165.18 159.84L166.44 159.84L166.44 156.28Q166.65 156.51 166.9 156.68Q167.58 157.13 168.56 157.13Q169.26 157.13 169.81 156.84Q170.29 156.59 170.65 156.1ZM197.68 156.1Q198.45 155.07 198.45 153.38L198.45 153.26Q198.45 151.47 197.67 150.47Q197.33 150.03 196.89 149.78Q196.31 149.46 195.56 149.46Q194.68 149.46 194.04 149.86Q193.69 150.08 193.42 150.42L193.36 149.6L192.2 149.6L192.2 159.84L193.47 159.84L193.47 156.28Q193.68 156.51 193.93 156.68Q194.6 157.13 195.59 157.13Q196.28 157.13 196.83 156.84Q197.31 156.59 197.68 156.1ZM200.15 151.27Q199.72 152.14 199.72 153.23L199.72 153.32Q199.72 154.83 200.44 155.82Q200.54 155.96 200.65 156.09Q201.02 156.5 201.48 156.75Q202.18 157.13 203.09 157.13Q203.9 157.13 204.56 156.82Q204.71 156.74 204.86 156.65Q205.12 156.49 205.34 156.28Q205.77 155.88 206.04 155.32Q206.45 154.46 206.45 153.38L206.45 153.29Q206.45 151.75 205.72 150.75Q205.62 150.62 205.52 150.51Q205.16 150.1 204.71 149.85Q204 149.46 203.08 149.46Q202.31 149.46 201.68 149.75Q201.5 149.83 201.34 149.93Q201.14 150.05 200.97 150.2Q200.47 150.63 200.15 151.27ZM229.67 156.1Q230.44 155.07 230.44 153.38L230.44 153.26Q230.44 151.47 229.67 150.47Q229.33 150.03 228.88 149.78Q228.31 149.46 227.56 149.46Q226.67 149.46 226.03 149.86Q225.68 150.08 225.41 150.42L225.35 149.6L224.19 149.6L224.19 159.84L225.46 159.84L225.46 156.28Q225.67 156.51 225.92 156.68Q226.6 157.13 227.58 157.13Q228.28 157.13 228.82 156.84Q229.31 156.59 229.67 156.1ZM232.14 151.27Q231.71 152.14 231.71 153.23L231.71 153.32Q231.71 154.83 232.43 155.82Q232.53 155.96 232.65 156.09Q233.02 156.5 233.47 156.75Q234.17 157.13 235.08 157.13Q235.89 157.13 236.55 156.82Q236.71 156.74 236.85 156.65Q237.11 156.49 237.33 156.28Q237.76 155.88 238.03 155.32Q238.45 154.46 238.45 153.38L238.45 153.29Q238.45 151.75 237.71 150.75Q237.62 150.62 237.51 150.51Q237.15 150.1 236.7 149.85Q235.99 149.46 235.07 149.46Q234.3 149.46 233.67 149.75Q233.5 149.83 233.33 149.93Q233.14 150.05 232.97 150.2Q232.46 150.63 232.14 151.27ZM252.42 156.22Q252.49 156.78 252.6 157L253.92 157L253.92 156.89Q253.66 156.28 253.66 155.27L253.66 151.86Q253.64 151.05 253.26 150.49Q253.11 150.28 252.91 150.1Q252.9 150.09 252.9 150.09Q252.17 149.46 250.91 149.46Q250.11 149.46 249.44 149.76L249.43 149.76Q248.76 150.06 248.37 150.57L248.36 150.58Q248.02 151.03 247.98 151.5Q247.97 151.58 247.97 151.65L249.24 151.65Q249.24 151.5 249.28 151.37Q249.38 151.06 249.7 150.82Q249.74 150.79 249.79 150.76Q250.23 150.48 250.83 150.48Q251.59 150.48 251.99 150.86Q252 150.87 252 150.87Q252.09 150.96 252.16 151.06Q252.4 151.41 252.4 151.93L252.4 152.51L251.17 152.51Q249.58 152.51 248.7 153.15Q248.32 153.42 248.11 153.79Q247.82 154.28 247.82 154.94Q247.82 155.44 248.01 155.85Q248.19 156.22 248.52 156.51Q248.66 156.64 248.82 156.74Q249.44 157.13 250.31 157.13Q250.85 157.13 251.32 156.96Q251.92 156.73 252.42 156.22ZM305.9 156.22Q305.97 156.78 306.07 157L307.4 157L307.4 156.89Q307.14 156.28 307.14 155.27L307.14 151.86Q307.12 151.05 306.73 150.49Q306.59 150.28 306.39 150.1Q306.38 150.09 306.37 150.09Q305.65 149.46 304.39 149.46Q303.58 149.46 302.92 149.76L302.91 149.76Q302.24 150.06 301.85 150.57L301.84 150.58Q301.5 151.03 301.45 151.5Q301.45 151.58 301.45 151.65L302.72 151.65Q302.72 151.5 302.76 151.37Q302.86 151.06 303.18 150.82Q303.22 150.79 303.27 150.76Q303.7 150.48 304.31 150.48Q305.07 150.48 305.47 150.86Q305.47 150.87 305.48 150.87Q305.57 150.96 305.64 151.06Q305.88 151.41 305.88 151.93L305.88 152.51L304.65 152.51Q303.05 152.51 302.17 153.15Q301.8 153.42 301.59 153.79Q301.3 154.28 301.3 154.94Q301.3 155.44 301.49 155.85Q301.66 156.22 302 156.51Q302.14 156.64 302.29 156.74Q302.92 157.13 303.79 157.13Q304.33 157.13 304.8 156.96Q305.4 156.73 305.9 156.22ZM312.82 155.96Q312.49 156.1 312.09 156.1Q311.46 156.1 311.01 155.81Q310.77 155.65 310.59 155.41Q310.06 154.72 310.06 153.44L310.06 153.2Q310.06 151.89 310.59 151.2Q310.79 150.93 311.05 150.77Q311.48 150.5 312.08 150.5Q312.53 150.5 312.88 150.68Q313.1 150.79 313.29 150.96Q313.47 151.13 313.59 151.34Q313.8 151.69 313.83 152.14L315.03 152.14Q315 151.41 314.67 150.84Q314.47 150.49 314.15 150.21Q313.92 149.99 313.65 149.84Q312.97 149.46 312.08 149.46Q311.13 149.46 310.41 149.88Q310.37 149.9 310.33 149.93Q310.1 150.07 309.9 150.25Q309.46 150.65 309.19 151.23Q308.79 152.07 308.79 153.15L308.79 153.37Q308.79 155.05 309.62 156.05Q309.66 156.09 309.69 156.12Q309.98 156.46 310.35 156.68Q311.08 157.13 312.09 157.13Q312.45 157.13 312.79 157.05Q313.17 156.97 313.51 156.79Q314.06 156.51 314.43 156.09Q314.51 155.99 314.59 155.87Q314.92 155.41 315 154.9Q315.02 154.78 315.03 154.66L313.83 154.66Q313.81 154.92 313.71 155.14Q313.57 155.45 313.27 155.69Q313.06 155.86 312.82 155.96ZM64.89 151.12Q65.01 151.34 65.01 151.62Q65.01 152.02 64.82 152.27Q64.51 152.67 63.72 152.69L62.35 152.69L62.35 153.75L63.61 153.75Q64.4 153.75 64.77 154.03Q64.83 154.07 64.88 154.12Q65.14 154.4 65.14 154.92Q65.14 155.16 65.05 155.35Q64.94 155.6 64.7 155.78Q64.25 156.12 63.53 156.12Q62.93 156.12 62.5 155.86Q62.41 155.8 62.33 155.73Q62 155.47 61.9 155.14Q61.85 154.98 61.85 154.81L60.59 154.81Q60.59 155.38 60.82 155.82Q61.03 156.21 61.42 156.5Q61.45 156.52 61.47 156.54Q62.29 157.13 63.53 157.13Q64.84 157.13 65.63 156.53Q65.99 156.26 66.18 155.89Q66.41 155.47 66.41 154.92Q66.41 154.33 66.14 153.92Q65.82 153.43 65.12 153.19Q65.67 152.95 65.98 152.53Q66.15 152.29 66.22 152.02Q66.28 151.83 66.28 151.62Q66.28 150.94 65.97 150.47Q65.8 150.22 65.55 150.03Q64.83 149.47 63.53 149.47Q62.44 149.47 61.67 149.97Q61.59 150.02 61.51 150.08Q61.06 150.43 60.86 150.89Q60.71 151.24 60.71 151.66L61.96 151.66Q61.96 151.54 62 151.42Q62.08 151.1 62.41 150.84Q62.47 150.8 62.53 150.76Q62.94 150.49 63.53 150.49Q64.22 150.49 64.62 150.8Q64.79 150.94 64.89 151.12ZM20.47 153.84L21.39 153.84L23.96 157L25.56 157L22.39 153.15L25.32 149.6L23.78 149.6L21.3 152.73L20.47 152.73L20.47 149.6L19.2 149.6L19.2 157L20.47 157L20.47 153.84ZM35.25 153.84L36.17 153.84L38.73 157L40.34 157L37.17 153.15L40.09 149.6L38.56 149.6L36.08 152.73L35.25 152.73L35.25 149.6L33.98 149.6L33.98 157L35.25 157L35.25 153.84ZM47.49 157L47.49 149.6L42.49 149.6L42.36 152.76Q42.28 154.5 42.02 155.14Q41.85 155.54 41.56 155.71Q41.37 155.83 41.13 155.85L40.77 155.88L40.77 157L41.28 157Q42.02 156.97 42.5 156.61Q42.74 156.42 42.91 156.14Q43.43 155.32 43.55 153.41L43.7 150.64L46.22 150.64L46.22 157L47.49 157ZM74.1 149.6L72.84 149.6L69.43 155L69.43 149.6L68.16 149.6L68.16 157L69.43 157L72.84 151.6L72.84 157L74.1 157L74.1 149.6ZM76.25 149.6L76.25 157L79.59 157Q80.96 157 81.71 156.46Q81.99 156.25 82.17 155.97Q82.46 155.53 82.46 154.9Q82.46 154.53 82.32 154.23Q82.22 154 82.05 153.8Q81.97 153.72 81.88 153.64Q81.51 153.31 80.97 153.19Q81.58 152.97 81.88 152.56Q82.04 152.34 82.12 152.1Q82.19 151.88 82.19 151.63Q82.19 151.07 81.94 150.66Q81.75 150.34 81.4 150.12Q80.61 149.6 79.13 149.6L76.25 149.6ZM88.91 157L90.17 157L90.17 149.6L88.91 149.6L88.91 152.81L85.51 152.81L85.51 149.6L84.24 149.6L84.24 157L85.51 157L85.51 153.84L88.91 153.84L88.91 157ZM128.6 157L128.6 149.6L123.6 149.6L123.47 152.76Q123.39 154.5 123.12 155.14Q122.96 155.54 122.67 155.71Q122.48 155.83 122.24 155.85L121.88 155.88L121.88 157L122.39 157Q123.13 156.97 123.61 156.61Q123.85 156.42 124.02 156.14Q124.54 155.32 124.66 153.41L124.81 150.64L127.33 150.64L127.33 157L128.6 157ZM133.93 152.15L132.01 152.15L132.01 149.6L130.75 149.6L130.75 157L133.88 157Q135.05 157 135.78 156.43Q135.84 156.38 135.9 156.33Q136.17 156.08 136.34 155.79Q136.65 155.26 136.65 154.55Q136.65 153.8 136.32 153.27Q136.16 153.01 135.92 152.81Q135.9 152.79 135.88 152.77Q135.15 152.16 133.93 152.15ZM139.61 153.84L140.53 153.84L143.1 157L144.71 157L141.53 153.15L144.46 149.6L142.93 149.6L140.44 152.73L139.61 152.73L139.61 149.6L138.34 149.6L138.34 157L139.61 157L139.61 153.84ZM161.88 157L163.15 157L163.15 149.6L157.21 149.6L157.21 157L158.48 157L158.48 150.64L161.88 150.64L161.88 157ZM179.08 149.6L177.82 149.6L174.41 155L174.41 149.6L173.14 149.6L173.14 157L174.41 157L177.82 151.6L177.82 157L179.08 157L179.08 149.6ZM212.82 157L214.08 157L214.08 149.6L212.82 149.6L212.82 152.81L209.42 152.81L209.42 149.6L208.15 149.6L208.15 157L209.42 157L209.42 153.84L212.82 153.84L212.82 157ZM222.16 149.6L220.9 149.6L217.49 155L217.49 149.6L216.22 149.6L216.22 157L217.49 157L220.9 151.6L220.9 157L222.16 157L222.16 149.6ZM240.15 149.6L240.15 157L243.49 157Q244.86 157 245.61 156.46Q245.89 156.25 246.07 155.97Q246.36 155.53 246.36 154.9Q246.36 154.53 246.22 154.23Q246.12 154 245.95 153.8Q245.87 153.72 245.78 153.64Q245.41 153.31 244.87 153.19Q245.47 152.97 245.78 152.56Q245.94 152.34 246.02 152.1Q246.09 151.88 246.09 151.63Q246.09 151.07 245.84 150.66Q245.65 150.34 245.3 150.12Q244.51 149.6 243.03 149.6L240.15 149.6ZM260.42 157L261.69 157L261.69 149.6L260.42 149.6L260.42 152.81L257.03 152.81L257.03 149.6L255.76 149.6L255.76 157L257.03 157L257.03 153.84L260.42 153.84L260.42 157ZM269.77 149.6L268.5 149.6L265.09 155L265.09 149.6L263.83 149.6L263.83 157L265.09 157L268.5 151.6L268.5 157L269.77 157L269.77 149.6ZM277.85 149.6L276.58 149.6L273.17 155L273.17 149.6L271.91 149.6L271.91 157L273.17 157L276.58 151.6L276.58 157L277.85 157L277.85 149.6ZM287.49 149.6L285.76 155.14L283.92 149.6L282.54 149.6L285.18 156.91L284.9 157.67Q284.66 158.36 284.31 158.62Q283.95 158.88 283.3 158.88L282.96 158.85L282.96 159.87L283.43 159.96L283.67 159.98Q284.13 159.98 284.5 159.82Q285.38 159.43 285.87 158.14L288.84 149.6L287.49 149.6ZM298.21 157L299.48 157L299.48 149.6L298.21 149.6L298.21 152.81L294.82 152.81L294.82 149.6L293.54 149.6L293.54 157L294.82 157L294.82 153.84L298.21 153.84L298.21 157ZM320.03 149.6L320.03 157L323.38 157Q324.74 157 325.49 156.46Q325.78 156.25 325.96 155.97Q326.24 155.53 326.24 154.9Q326.24 154.53 326.11 154.23Q326.01 154 325.83 153.8Q325.76 153.72 325.67 153.64Q325.3 153.31 324.76 153.19Q325.36 152.97 325.67 152.56Q325.82 152.34 325.9 152.1Q325.97 151.88 325.97 151.63Q325.97 151.07 325.72 150.66Q325.53 150.34 325.18 150.12Q324.39 149.6 322.92 149.6L320.03 149.6ZM331.22 152.15L329.3 152.15L329.3 149.6L328.03 149.6L328.03 157L331.16 157Q332.33 157 333.06 156.43Q333.13 156.38 333.19 156.33Q333.46 156.08 333.63 155.79Q333.94 155.26 333.94 154.55Q333.94 153.8 333.6 153.27Q333.44 153.01 333.21 152.81Q333.19 152.79 333.16 152.77Q332.44 152.16 331.22 152.15ZM335.31 157L336.58 157L336.58 149.6L335.31 149.6L335.31 157ZM54.49 155.35Q53.92 154.61 53.92 153.38Q53.92 151.99 54.5 151.25Q54.78 150.88 55.16 150.69Q55.54 150.5 56.02 150.5Q56.5 150.5 56.89 150.7Q57.26 150.89 57.55 151.26Q58.12 152.02 58.12 153.23Q58.12 154.58 57.56 155.34Q57.29 155.7 56.93 155.89Q56.53 156.1 56.03 156.1Q55.51 156.1 55.11 155.89Q54.76 155.7 54.49 155.35ZM93.71 155.35Q93.14 154.61 93.14 153.38Q93.14 151.99 93.72 151.25Q94.01 150.87 94.39 150.68Q94.76 150.5 95.23 150.5Q95.71 150.5 96.1 150.7Q96.48 150.89 96.76 151.26Q97.34 152.01 97.34 153.23Q97.34 154.59 96.77 155.34Q96.5 155.7 96.14 155.89Q95.75 156.1 95.24 156.1Q94.74 156.1 94.34 155.89Q93.98 155.71 93.71 155.35ZM116.17 155.35Q115.6 154.61 115.6 153.38Q115.6 151.99 116.17 151.25Q116.46 150.87 116.85 150.68Q117.22 150.5 117.68 150.5Q118.17 150.5 118.56 150.7Q118.93 150.89 119.22 151.26Q119.8 152.01 119.8 153.23Q119.8 154.59 119.23 155.34Q118.96 155.7 118.6 155.89Q118.2 156.1 117.7 156.1Q117.19 156.1 116.8 155.89Q116.44 155.71 116.17 155.35ZM147.16 155.35Q146.59 154.61 146.59 153.38Q146.59 151.99 147.16 151.25Q147.45 150.87 147.83 150.68Q148.21 150.5 148.67 150.5Q149.16 150.5 149.54 150.7Q149.92 150.89 150.2 151.26Q150.78 152.01 150.78 153.23Q150.78 154.59 150.22 155.34Q149.95 155.7 149.59 155.89Q149.19 156.1 148.68 156.1Q148.18 156.1 147.78 155.89Q147.43 155.71 147.16 155.35ZM201.56 155.35Q200.99 154.61 200.99 153.38Q200.99 151.99 201.57 151.25Q201.86 150.87 202.24 150.68Q202.61 150.5 203.08 150.5Q203.56 150.5 203.95 150.7Q204.33 150.89 204.61 151.26Q205.19 152.01 205.19 153.23Q205.19 154.59 204.62 155.34Q204.35 155.7 203.99 155.89Q203.6 156.1 203.09 156.1Q202.59 156.1 202.19 155.89Q201.83 155.71 201.56 155.35ZM233.56 155.35Q232.98 154.61 232.98 153.38Q232.98 151.99 233.56 151.25Q233.85 150.87 234.23 150.68Q234.61 150.5 235.07 150.5Q235.56 150.5 235.94 150.7Q236.32 150.89 236.6 151.26Q237.18 152.01 237.18 153.23Q237.18 154.59 236.61 155.34Q236.35 155.7 235.99 155.89Q235.59 156.1 235.08 156.1Q234.58 156.1 234.19 155.89Q233.83 155.71 233.56 155.35ZM169.63 151.26Q170.16 151.98 170.16 153.24Q170.16 154.66 169.63 155.38Q169.37 155.73 169.02 155.91Q168.65 156.1 168.18 156.1Q167.59 156.1 167.15 155.84Q166.72 155.59 166.44 155.09L166.44 151.55Q166.74 151.03 167.19 150.77Q167.61 150.53 168.17 150.53Q168.67 150.53 169.06 150.75Q169.38 150.93 169.63 151.26ZM196.65 151.26Q197.18 151.98 197.18 153.24Q197.18 154.66 196.65 155.38Q196.39 155.73 196.04 155.91Q195.67 156.1 195.2 156.1Q194.61 156.1 194.17 155.84Q193.75 155.59 193.47 155.09L193.47 151.55Q193.76 151.03 194.21 150.77Q194.63 150.53 195.19 150.53Q195.69 150.53 196.08 150.75Q196.41 150.93 196.65 151.26ZM228.64 151.26Q229.18 151.98 229.18 153.24Q229.18 154.66 228.64 155.38Q228.38 155.73 228.03 155.91Q227.66 156.1 227.19 156.1Q226.6 156.1 226.16 155.84Q225.74 155.59 225.46 155.09L225.46 151.55Q225.76 151.03 226.21 150.77Q226.63 150.53 227.18 150.53Q227.68 150.53 228.07 150.75Q228.4 150.93 228.64 151.26ZM79.15 152.74L77.51 152.74L77.51 150.62L79.24 150.62Q80.47 150.65 80.8 151.21Q80.93 151.41 80.93 151.7Q80.93 151.96 80.81 152.16Q80.47 152.74 79.15 152.74ZM243.05 152.74L241.41 152.74L241.41 150.62L243.14 150.62Q244.37 150.65 244.7 151.21Q244.82 151.41 244.82 151.7Q244.82 151.96 244.71 152.16Q244.37 152.74 243.05 152.74ZM322.93 152.74L321.3 152.74L321.3 150.62L323.03 150.62Q324.25 150.65 324.58 151.21Q324.71 151.41 324.71 151.7Q324.71 151.96 324.59 152.16Q324.26 152.74 322.93 152.74ZM186.52 151.34Q186.97 151.06 187.58 151.06Q188.23 151.06 188.69 151.35Q188.9 151.49 189.08 151.69Q189.13 151.75 189.17 151.81Q189.63 152.42 189.63 153.37Q189.63 154.71 189.08 155.41Q188.86 155.7 188.56 155.87Q188.14 156.11 187.59 156.11Q187.06 156.11 186.65 155.88Q186.34 155.71 186.11 155.41Q185.56 154.72 185.56 153.53L185.56 153.42Q185.56 152.31 186.1 151.69Q186.29 151.48 186.52 151.34ZM132.01 155.96L132.01 153.18L133.94 153.18Q134.52 153.19 134.89 153.48Q134.95 153.53 135 153.59Q135.11 153.7 135.19 153.84Q135.38 154.16 135.38 154.6Q135.38 155.08 135.15 155.41Q135.08 155.51 134.99 155.6Q134.98 155.61 134.96 155.62Q134.58 155.96 133.89 155.96L132.01 155.96ZM329.3 155.96L329.3 153.18L331.22 153.18Q331.81 153.19 332.17 153.48Q332.23 153.53 332.29 153.59Q332.4 153.7 332.48 153.84Q332.67 154.16 332.67 154.6Q332.67 155.08 332.44 155.41Q332.37 155.51 332.28 155.6Q332.26 155.61 332.25 155.62Q331.86 155.96 331.18 155.96L329.3 155.96ZM250.93 155.99Q250.72 156.03 250.5 156.03Q249.96 156.03 249.59 155.78Q249.54 155.74 249.48 155.7Q249.36 155.59 249.27 155.46Q249.08 155.17 249.08 154.77Q249.08 154.42 249.23 154.16Q249.68 153.41 251.41 153.41L252.4 153.41L252.4 154.92Q252.36 155.01 252.31 155.09Q252.07 155.47 251.63 155.72Q251.29 155.92 250.93 155.99ZM304.41 155.99Q304.2 156.03 303.98 156.03Q303.44 156.03 303.07 155.78Q303.01 155.74 302.96 155.7Q302.83 155.59 302.75 155.46Q302.56 155.17 302.56 154.77Q302.56 154.42 302.71 154.16Q303.15 153.41 304.89 153.41L305.88 153.41L305.88 154.92Q305.84 155.01 305.79 155.09Q305.55 155.47 305.1 155.72Q304.77 155.92 304.41 155.99ZM77.51 155.98L77.51 153.75L79.56 153.75Q80.67 153.75 81.02 154.27Q81.19 154.5 81.19 154.86Q81.19 155.18 81.04 155.41Q80.95 155.57 80.79 155.68Q80.4 155.98 79.61 155.98L77.51 155.98ZM241.41 155.98L241.41 153.75L243.46 153.75Q244.57 153.75 244.92 154.27Q245.08 154.5 245.08 154.86Q245.08 155.18 244.94 155.41Q244.85 155.57 244.69 155.68Q244.3 155.98 243.51 155.98L241.41 155.98ZM321.3 155.98L321.3 153.75L323.34 153.75Q324.45 153.75 324.81 154.27Q324.97 154.5 324.97 154.86Q324.97 155.18 324.83 155.41Q324.73 155.57 324.58 155.68Q324.18 155.98 323.39 155.98L321.3 155.98ZM100.41 155.99Q100.33 156.15 100.33 156.36Q100.33 156.58 100.42 156.74Q100.46 156.81 100.51 156.87Q100.53 156.89 100.55 156.9Q100.74 157.07 101.07 157.07Q101.41 157.07 101.6 156.9Q101.61 156.89 101.63 156.87Q101.69 156.8 101.73 156.73Q101.82 156.57 101.82 156.36Q101.82 156.16 101.74 156Q101.7 155.92 101.63 155.84Q101.61 155.82 101.58 155.79Q101.39 155.64 101.07 155.64Q100.75 155.64 100.56 155.8Q100.54 155.82 100.51 155.84Q100.45 155.91 100.41 155.99ZM88.51 166.43Q87.83 166.02 86.91 166.02Q86.32 166.02 85.81 166.22Q85.06 166.5 84.47 167.18Q84.64 166.13 85.2 165.5Q85.77 164.87 86.89 164.6L87.84 164.39Q88.68 164.19 89.07 163.71Q89.46 163.23 89.46 162.38L88.42 162.38Q88.42 162.61 88.32 162.79Q88.24 162.94 88.08 163.06Q87.75 163.3 86.79 163.47Q85.81 163.65 85.1 164.19Q84.6 164.58 84.24 165.15Q83.37 166.52 83.37 168.85L83.37 169.47Q83.37 170.95 84.08 171.9Q84.18 172.02 84.28 172.14Q84.6 172.48 84.98 172.71Q85.71 173.13 86.68 173.13Q87.54 173.13 88.22 172.79Q88.32 172.74 88.42 172.68Q88.71 172.51 88.94 172.28Q89.33 171.91 89.58 171.4Q89.98 170.58 89.98 169.53L89.98 169.41Q89.98 168.11 89.37 167.23Q89.27 167.09 89.15 166.96Q88.86 166.64 88.51 166.43ZM278.83 170.89Q279.32 169.8 279.32 168.34L279.32 167.71Q279.32 166.26 278.83 165.16Q278.43 164.27 277.76 163.72Q277.6 163.59 277.43 163.48Q277.26 163.38 277.09 163.29Q276.3 162.91 275.32 162.91Q274.43 162.91 273.7 163.24Q273.46 163.35 273.23 163.49Q273.07 163.59 272.93 163.71Q272.23 164.27 271.82 165.18Q271.32 166.28 271.32 167.71L271.32 168.43Q271.33 169.84 271.84 170.91Q272.23 171.75 272.88 172.29Q273.06 172.43 273.25 172.55Q273.45 172.68 273.67 172.79Q274.42 173.13 275.33 173.13Q276.37 173.13 277.18 172.71Q277.31 172.64 277.44 172.56Q277.59 172.46 277.73 172.35Q278.42 171.8 278.83 170.89ZM315.72 170.89Q316.21 169.8 316.21 168.34L316.21 167.71Q316.21 166.26 315.72 165.16Q315.32 164.27 314.64 163.72Q314.49 163.59 314.32 163.48Q314.15 163.38 313.98 163.29Q313.19 162.91 312.21 162.91Q311.32 162.91 310.58 163.24Q310.34 163.35 310.12 163.49Q309.96 163.59 309.81 163.71Q309.12 164.27 308.71 165.18Q308.21 166.28 308.21 167.71L308.21 168.43Q308.22 169.84 308.72 170.91Q309.12 171.75 309.77 172.29Q309.94 172.43 310.14 172.55Q310.34 172.68 310.56 172.79Q311.31 173.13 312.22 173.13Q313.26 173.13 314.07 172.71Q314.2 172.64 314.32 172.56Q314.48 172.46 314.62 172.35Q315.31 171.8 315.72 170.89ZM267.18 164.12L270.38 164.12L270.38 163.04L262.69 163.04L262.69 164.12L265.88 164.12L265.88 173L267.18 173L267.18 164.12ZM288.61 173L288.61 163.04L282.48 163.04L282.27 167.87Q282.2 169.53 282.02 170.33Q281.84 171.13 281.5 171.5Q281.47 171.53 281.44 171.55Q281.1 171.86 280.52 171.91L280.25 171.92L280.25 173L280.68 173Q281.66 172.98 282.25 172.51Q282.84 172.05 283.14 171.05Q283.45 170.05 283.55 168.07L283.73 164.12L287.3 164.12L287.3 173L288.61 173ZM294.73 167.1L292.26 167.1L292.26 163.04L290.95 163.04L290.95 173L294.75 173Q296.2 172.97 297.07 172.25Q297.12 172.21 297.16 172.17Q297.44 171.92 297.63 171.61Q298.04 170.94 298.04 170.02Q298.04 169.09 297.62 168.43Q297.43 168.14 297.17 167.9Q296.29 167.12 294.73 167.1ZM301.15 168.52L302.35 168.52L305.96 173L307.56 173L303.48 167.87L307.28 163.04L305.65 163.04L302.17 167.43L301.15 167.43L301.15 163.04L299.83 163.04L299.83 173L301.15 173L301.15 168.52ZM277.31 164.98Q278.02 165.93 278.02 167.7L278.02 168.44Q278 170.17 277.3 171.09Q277.03 171.45 276.68 171.67Q276.12 172.02 275.33 172.02Q274.64 172.02 274.11 171.72Q273.67 171.48 273.35 171.04Q272.63 170.06 272.63 168.34L272.63 167.61Q272.65 165.93 273.36 164.98Q273.68 164.56 274.09 164.33Q274.62 164.03 275.32 164.03Q276.08 164.03 276.64 164.37Q277.02 164.6 277.31 164.98ZM314.2 164.98Q314.91 165.93 314.91 167.7L314.91 168.44Q314.89 170.17 314.19 171.09Q313.92 171.45 313.57 171.67Q313 172.02 312.22 172.02Q311.53 172.02 311 171.72Q310.56 171.48 310.23 171.04Q309.51 170.06 309.51 168.34L309.51 167.61Q309.53 165.93 310.25 164.98Q310.56 164.56 310.98 164.33Q311.51 164.03 312.21 164.03Q312.97 164.03 313.53 164.37Q313.91 164.6 314.2 164.98ZM40.93 167.27Q40.5 168.14 40.5 169.23L40.5 169.32Q40.5 170.83 41.22 171.82Q41.32 171.96 41.44 172.09Q41.81 172.5 42.26 172.75Q42.97 173.13 43.87 173.13Q44.69 173.13 45.35 172.82Q45.5 172.74 45.64 172.65Q45.9 172.49 46.12 172.28Q46.55 171.88 46.82 171.32Q47.24 170.46 47.24 169.38L47.24 169.29Q47.24 167.75 46.5 166.75Q46.41 166.62 46.31 166.51Q45.94 166.1 45.49 165.85Q44.78 165.46 43.86 165.46Q43.1 165.46 42.46 165.75Q42.29 165.83 42.12 165.93Q41.93 166.05 41.76 166.2Q41.25 166.63 40.93 167.27ZM60.61 172.71Q61.35 173.13 62.33 173.13Q63.44 173.13 64.22 172.63Q64.74 172.28 65.12 171.7L64.35 171.1Q64.04 171.5 63.65 171.76Q63.59 171.79 63.54 171.83Q63.07 172.1 62.4 172.1Q61.88 172.1 61.45 171.89Q61.12 171.73 60.85 171.43Q60.76 171.33 60.68 171.22Q60.23 170.6 60.21 169.66L65.22 169.66L65.22 169.13Q65.22 167.36 64.42 166.41Q64.18 166.13 63.89 165.93Q63.19 165.46 62.17 165.46Q61.79 165.46 61.43 165.56Q60.96 165.68 60.54 165.95Q60.33 166.08 60.15 166.25Q59.67 166.68 59.36 167.3Q58.94 168.17 58.94 169.27L58.94 169.5Q58.94 170.87 59.59 171.78Q59.72 171.97 59.88 172.14Q60.21 172.49 60.61 172.71ZM74.13 172.71Q74.87 173.13 75.85 173.13Q76.96 173.13 77.74 172.63Q78.27 172.28 78.64 171.7L77.87 171.1Q77.56 171.5 77.17 171.76Q77.11 171.79 77.06 171.83Q76.59 172.1 75.92 172.1Q75.4 172.1 74.98 171.89Q74.64 171.73 74.37 171.43Q74.28 171.33 74.2 171.22Q73.75 170.6 73.73 169.66L78.74 169.66L78.74 169.13Q78.74 167.36 77.94 166.41Q77.7 166.13 77.41 165.93Q76.71 165.46 75.7 165.46Q75.31 165.46 74.95 165.56Q74.48 165.68 74.06 165.95Q73.85 166.08 73.67 166.25Q73.19 166.68 72.88 167.3Q72.46 168.17 72.46 169.27L72.46 169.5Q72.46 170.87 73.11 171.78Q73.24 171.97 73.41 172.14Q73.73 172.49 74.13 172.71ZM136.03 172.71Q136.78 173.13 137.76 173.13Q138.87 173.13 139.64 172.63Q140.17 172.28 140.55 171.7L139.78 171.1Q139.47 171.5 139.07 171.76Q139.02 171.79 138.96 171.83Q138.5 172.1 137.83 172.1Q137.3 172.1 136.88 171.89Q136.55 171.73 136.27 171.43Q136.19 171.33 136.11 171.22Q135.66 170.6 135.63 169.66L140.64 169.66L140.64 169.13Q140.64 167.36 139.85 166.41Q139.61 166.13 139.32 165.93Q138.62 165.46 137.6 165.46Q137.22 165.46 136.86 165.56Q136.39 165.68 135.97 165.95Q135.76 166.08 135.58 166.25Q135.1 166.68 134.79 167.3Q134.37 168.17 134.37 169.27L134.37 169.5Q134.37 170.87 135.01 171.78Q135.15 171.97 135.31 172.14Q135.64 172.49 136.03 172.71ZM147.58 172.1Q148.36 171.07 148.36 169.38L148.36 169.26Q148.36 167.47 147.58 166.47Q147.24 166.03 146.79 165.78Q146.22 165.46 145.47 165.46Q144.58 165.46 143.95 165.86Q143.6 166.08 143.32 166.42L143.26 165.6L142.11 165.6L142.11 175.84L143.37 175.84L143.37 172.28Q143.58 172.51 143.83 172.68Q144.51 173.13 145.49 173.13Q146.19 173.13 146.73 172.84Q147.22 172.59 147.58 172.1ZM151.31 172.71Q152.05 173.13 153.03 173.13Q154.14 173.13 154.92 172.63Q155.44 172.28 155.82 171.7L155.05 171.1Q154.74 171.5 154.34 171.76Q154.29 171.79 154.23 171.83Q153.77 172.1 153.1 172.1Q152.58 172.1 152.15 171.89Q151.82 171.73 151.54 171.43Q151.46 171.33 151.38 171.22Q150.93 170.6 150.91 169.66L155.92 169.66L155.92 169.13Q155.92 167.36 155.12 166.41Q154.88 166.13 154.59 165.93Q153.89 165.46 152.87 165.46Q152.49 165.46 152.13 165.56Q151.66 165.68 151.24 165.95Q151.03 166.08 150.85 166.25Q150.37 166.68 150.06 167.3Q149.64 168.17 149.64 169.27L149.64 169.5Q149.64 170.87 150.28 171.78Q150.42 171.97 150.58 172.14Q150.91 172.49 151.31 172.71ZM196.68 167.27Q196.25 168.14 196.25 169.23L196.25 169.32Q196.25 170.83 196.97 171.82Q197.07 171.96 197.18 172.09Q197.55 172.5 198.01 172.75Q198.71 173.13 199.62 173.13Q200.43 173.13 201.09 172.82Q201.24 172.74 201.39 172.65Q201.65 172.49 201.87 172.28Q202.3 171.88 202.57 171.32Q202.98 170.46 202.98 169.38L202.98 169.29Q202.98 167.75 202.24 166.75Q202.15 166.62 202.05 166.51Q201.69 166.1 201.24 165.85Q200.53 165.46 199.6 165.46Q198.84 165.46 198.21 165.75Q198.03 165.83 197.87 165.93Q197.67 166.05 197.5 166.2Q196.99 166.63 196.68 167.27ZM228.6 172.22Q228.66 172.78 228.77 173L230.1 173L230.1 172.89Q229.84 172.28 229.84 171.27L229.84 167.86Q229.82 167.05 229.43 166.49Q229.29 166.28 229.09 166.1Q229.08 166.09 229.07 166.09Q228.35 165.46 227.09 165.46Q226.28 165.46 225.61 165.76L225.61 165.76Q224.94 166.06 224.55 166.57L224.54 166.58Q224.2 167.03 224.15 167.5Q224.15 167.58 224.15 167.65L225.42 167.65Q225.42 167.5 225.46 167.37Q225.56 167.06 225.88 166.82Q225.92 166.79 225.97 166.76Q226.4 166.48 227.01 166.48Q227.77 166.48 228.16 166.86Q228.17 166.87 228.18 166.87Q228.27 166.96 228.34 167.06Q228.58 167.41 228.58 167.93L228.58 168.51L227.35 168.51Q225.75 168.51 224.87 169.15Q224.5 169.42 224.29 169.79Q224 170.28 224 170.94Q224 171.44 224.19 171.85Q224.36 172.22 224.7 172.51Q224.84 172.64 224.99 172.74Q225.62 173.13 226.49 173.13Q227.03 173.13 227.5 172.96Q228.1 172.73 228.6 172.22ZM254.04 172.71Q254.79 173.13 255.77 173.13Q256.88 173.13 257.65 172.63Q258.18 172.28 258.56 171.7L257.79 171.1Q257.48 171.5 257.08 171.76Q257.03 171.79 256.97 171.83Q256.51 172.1 255.84 172.1Q255.31 172.1 254.89 171.89Q254.55 171.73 254.28 171.43Q254.19 171.33 254.12 171.22Q253.67 170.6 253.64 169.66L258.65 169.66L258.65 169.13Q258.65 167.36 257.85 166.41Q257.62 166.13 257.32 165.93Q256.63 165.46 255.61 165.46Q255.23 165.46 254.86 165.56Q254.4 165.68 253.97 165.95Q253.77 166.08 253.59 166.25Q253.1 166.68 252.8 167.3Q252.38 168.17 252.38 169.27L252.38 169.5Q252.38 170.87 253.02 171.78Q253.16 171.97 253.32 172.14Q253.65 172.49 254.04 172.71ZM186.85 173L188.12 173L188.12 165.6L186.85 165.6L186.85 169.28Q186.62 169.34 186.39 169.38Q185.77 169.5 185.14 169.5Q184.41 169.5 184.01 169.13Q183.57 168.72 183.55 167.84L183.55 165.59L182.28 165.59L182.28 167.8Q182.29 168.97 182.88 169.67Q182.95 169.75 183.02 169.82Q183.04 169.84 183.06 169.86Q183.79 170.53 185.14 170.53Q185.77 170.53 186.39 170.42Q186.62 170.38 186.85 170.32L186.85 173ZM37.23 165.6L34.71 171.32L32.21 165.6L30.57 165.6L30.57 173L31.84 173L31.84 167.5L34.28 173L35.15 173L37.54 167.62L37.54 173L38.81 173L38.81 165.6L37.23 165.6ZM53.69 169.78L54.58 169.78L56.65 173L58.25 173L55.61 169.17L58 165.6L56.47 165.6L54.55 168.66L53.69 168.66L53.69 165.6L52.43 165.6L52.43 168.66L51.56 168.66L49.65 165.6L48.12 165.6L50.51 169.17L47.87 173L49.47 173L51.54 169.78L52.43 169.78L52.43 173L53.69 173L53.69 169.78ZM69.62 166.62L72.1 166.62L72.1 165.6L65.92 165.6L65.92 166.62L68.35 166.62L68.35 173L69.62 173L69.62 166.62ZM94.71 168.15L92.79 168.15L92.79 165.6L91.52 165.6L91.52 173L94.65 173Q95.82 173 96.55 172.43Q96.61 172.38 96.68 172.33Q96.95 172.08 97.12 171.79Q97.43 171.26 97.43 170.55Q97.43 169.8 97.09 169.27Q96.93 169.01 96.7 168.81Q96.68 168.79 96.65 168.77Q95.93 168.16 94.71 168.15ZM98.79 173L100.07 173L100.07 165.6L98.79 165.6L98.79 173ZM105.29 166.62L107.77 166.62L107.77 165.6L101.59 165.6L101.59 166.62L104.02 166.62L104.02 173L105.29 173L105.29 166.62ZM112.3 168.15L110.38 168.15L110.38 165.6L109.12 165.6L109.12 173L112.25 173Q113.42 173 114.15 172.43Q114.21 172.38 114.27 172.33Q114.54 172.08 114.72 171.79Q115.02 171.26 115.02 170.55Q115.02 169.8 114.69 169.27Q114.53 169.01 114.29 168.81Q114.27 168.79 114.25 168.77Q113.53 168.16 112.3 168.15ZM124.21 165.6L122.49 171.14L120.64 165.6L119.26 165.6L121.9 172.91L121.62 173.67Q121.39 174.36 121.03 174.62Q120.67 174.88 120.03 174.88L119.69 174.85L119.69 175.87L120.16 175.96L120.4 175.98Q120.85 175.98 121.23 175.82Q122.11 175.43 122.59 174.14L125.56 165.6L124.21 165.6ZM126.81 165.6L126.81 173L130.15 173Q131.52 173 132.27 172.46Q132.55 172.25 132.73 171.97Q133.02 171.53 133.02 170.9Q133.02 170.53 132.88 170.23Q132.78 170 132.61 169.8Q132.53 169.72 132.44 169.64Q132.07 169.31 131.53 169.19Q132.13 168.97 132.44 168.56Q132.6 168.34 132.68 168.1Q132.75 167.88 132.75 167.63Q132.75 167.07 132.5 166.66Q132.31 166.34 131.96 166.12Q131.17 165.6 129.69 165.6L126.81 165.6ZM162.16 173L163.42 173L163.42 165.6L162.16 165.6L162.16 168.81L158.76 168.81L158.76 165.6L157.49 165.6L157.49 173L158.76 173L158.76 169.84L162.16 169.84L162.16 173ZM168.75 168.15L166.83 168.15L166.83 165.6L165.57 165.6L165.57 173L168.7 173Q169.87 173 170.6 172.43Q170.66 172.38 170.72 172.33Q170.99 172.08 171.17 171.79Q171.47 171.26 171.47 170.55Q171.47 169.8 171.14 169.27Q170.98 169.01 170.74 168.81Q170.72 168.79 170.7 168.77Q169.98 168.16 168.75 168.15ZM172.84 173L174.11 173L174.11 165.6L172.84 165.6L172.84 173ZM193.16 166.62L195.64 166.62L195.64 165.6L189.46 165.6L189.46 166.62L191.89 166.62L191.89 173L193.16 173L193.16 166.62ZM212.82 173L214.08 173L214.08 165.6L208.14 165.6L208.14 173L209.41 173L209.41 166.64L212.82 166.64L212.82 173ZM222.18 173L222.18 165.6L217.18 165.6L217.04 168.76Q216.97 170.5 216.7 171.14Q216.54 171.54 216.24 171.71Q216.06 171.83 215.82 171.85L215.46 171.88L215.46 173L215.96 173Q216.71 172.97 217.18 172.61Q217.43 172.42 217.6 172.14Q218.12 171.32 218.24 169.41L218.39 166.64L220.91 166.64L220.91 173L222.18 173ZM234.73 166.62L237.21 166.62L237.21 165.6L231.03 165.6L231.03 166.62L233.46 166.62L233.46 173L234.73 173L234.73 166.62ZM244.49 165.6L243.22 165.6L239.81 171L239.81 165.6L238.55 165.6L238.55 173L239.81 173L243.22 167.6L243.22 173L244.49 173L244.49 165.6ZM249.53 166.62L252.02 166.62L252.02 165.6L245.84 165.6L245.84 166.62L248.27 166.62L248.27 173L249.53 173L249.53 166.62ZM42.35 171.35Q41.78 170.61 41.78 169.38Q41.78 167.99 42.35 167.25Q42.64 166.87 43.02 166.68Q43.4 166.5 43.86 166.5Q44.35 166.5 44.74 166.7Q45.11 166.89 45.4 167.26Q45.97 168.01 45.97 169.23Q45.97 170.59 45.41 171.34Q45.14 171.7 44.78 171.89Q44.38 172.1 43.87 172.1Q43.37 172.1 42.98 171.89Q42.62 171.71 42.35 171.35ZM61.46 166.65Q61.79 166.5 62.17 166.5Q62.71 166.5 63.09 166.74Q63.28 166.86 63.43 167.03Q63.9 167.56 63.95 168.52L63.95 168.62L60.25 168.62Q60.37 167.62 60.89 167.06Q61.15 166.78 61.46 166.65ZM74.98 166.65Q75.31 166.5 75.7 166.5Q76.23 166.5 76.61 166.74Q76.8 166.86 76.95 167.03Q77.42 167.56 77.47 168.52L77.47 168.62L73.77 168.62Q73.89 167.62 74.41 167.06Q74.67 166.78 74.98 166.65ZM136.89 166.65Q137.21 166.5 137.6 166.5Q138.13 166.5 138.52 166.74Q138.71 166.86 138.86 167.03Q139.33 167.56 139.38 168.52L139.38 168.62L135.67 168.62Q135.8 167.62 136.32 167.06Q136.57 166.78 136.89 166.65ZM152.16 166.65Q152.49 166.5 152.87 166.5Q153.41 166.5 153.79 166.74Q153.98 166.86 154.13 167.03Q154.6 167.56 154.65 168.52L154.65 168.62L150.95 168.62Q151.07 167.62 151.59 167.06Q151.84 166.78 152.16 166.65ZM198.09 171.35Q197.52 170.61 197.52 169.38Q197.52 167.99 198.09 167.25Q198.38 166.87 198.77 166.68Q199.14 166.5 199.6 166.5Q200.09 166.5 200.48 166.7Q200.86 166.89 201.14 167.26Q201.72 168.01 201.72 169.23Q201.72 170.59 201.15 171.34Q200.88 171.7 200.52 171.89Q200.12 172.1 199.62 172.1Q199.12 172.1 198.72 171.89Q198.36 171.71 198.09 171.35ZM254.9 166.65Q255.22 166.5 255.61 166.5Q256.14 166.5 256.53 166.74Q256.72 166.86 256.87 167.03Q257.33 167.56 257.39 168.52L257.39 168.62L253.68 168.62Q253.81 167.62 254.33 167.06Q254.58 166.78 254.9 166.65ZM146.56 167.26Q147.09 167.98 147.09 169.24Q147.09 170.66 146.55 171.38Q146.29 171.73 145.95 171.91Q145.58 172.1 145.11 172.1Q144.52 172.1 144.08 171.84Q143.65 171.59 143.37 171.09L143.37 167.55Q143.67 167.03 144.12 166.77Q144.54 166.54 145.1 166.54Q145.6 166.54 145.98 166.75Q146.31 166.93 146.56 167.26ZM129.71 168.74L128.07 168.74L128.07 166.62L129.8 166.62Q131.03 166.65 131.36 167.21Q131.48 167.41 131.48 167.7Q131.48 167.96 131.37 168.16Q131.03 168.74 129.71 168.74ZM85.61 167.34Q86.05 167.06 86.67 167.06Q87.31 167.06 87.77 167.35Q87.99 167.49 88.17 167.69Q88.22 167.75 88.26 167.81Q88.72 168.42 88.72 169.37Q88.72 170.71 88.17 171.41Q87.94 171.7 87.64 171.87Q87.23 172.11 86.68 172.11Q86.14 172.11 85.73 171.88Q85.43 171.71 85.19 171.41Q84.64 170.72 84.64 169.53L84.64 169.42Q84.64 168.31 85.19 167.69Q85.38 167.48 85.61 167.34ZM292.26 171.92L292.26 168.18L294.71 168.18Q295.68 168.2 296.2 168.68Q296.33 168.8 296.43 168.95Q296.72 169.38 296.72 170.01Q296.72 170.65 296.43 171.11Q296.32 171.27 296.18 171.4Q296.14 171.44 296.1 171.48Q295.56 171.92 294.66 171.92L292.26 171.92ZM92.79 171.96L92.79 169.18L94.71 169.18Q95.3 169.19 95.66 169.48Q95.72 169.53 95.78 169.59Q95.89 169.7 95.97 169.84Q96.16 170.16 96.16 170.6Q96.16 171.08 95.93 171.41Q95.86 171.51 95.77 171.6Q95.75 171.61 95.74 171.62Q95.35 171.96 94.67 171.96L92.79 171.96ZM110.38 171.96L110.38 169.18L112.31 169.18Q112.9 169.19 113.26 169.48Q113.32 169.53 113.37 169.59Q113.48 169.7 113.56 169.84Q113.75 170.16 113.75 170.6Q113.75 171.08 113.52 171.41Q113.45 171.51 113.36 171.6Q113.35 171.61 113.33 171.62Q112.95 171.96 112.26 171.96L110.38 171.96ZM166.83 171.96L166.83 169.18L168.76 169.18Q169.35 169.19 169.71 169.48Q169.77 169.53 169.82 169.59Q169.94 169.7 170.01 169.84Q170.2 170.16 170.2 170.6Q170.2 171.08 169.98 171.41Q169.91 171.51 169.81 171.6Q169.8 171.61 169.79 171.62Q169.4 171.96 168.71 171.96L166.83 171.96ZM227.11 171.99Q226.9 172.03 226.68 172.03Q226.14 172.03 225.77 171.78Q225.71 171.74 225.66 171.7Q225.53 171.59 225.45 171.46Q225.26 171.18 225.26 170.77Q225.26 170.42 225.41 170.16Q225.85 169.41 227.58 169.41L228.58 169.41L228.58 170.92Q228.53 171.01 228.49 171.09Q228.25 171.47 227.8 171.72Q227.47 171.92 227.11 171.99ZM128.07 171.98L128.07 169.75L130.12 169.75Q131.23 169.75 131.58 170.27Q131.74 170.51 131.74 170.86Q131.74 171.18 131.6 171.41Q131.51 171.57 131.35 171.68Q130.96 171.98 130.17 171.98L128.07 171.98ZM175.56 174.49L176.28 174.98Q176.79 174.56 177.13 173.87Q177.47 173.18 177.47 172.49L177.47 171.5L176.23 171.5L176.23 172.64Q176.23 172.73 176.22 172.81Q176.15 173.67 175.56 174.49ZM150.64 182.43Q149.96 182.02 149.05 182.02Q148.46 182.02 147.94 182.22Q147.19 182.5 146.6 183.18Q146.77 182.13 147.33 181.5Q147.9 180.87 149.03 180.6L149.97 180.39Q150.82 180.19 151.2 179.71Q151.59 179.23 151.59 178.38L150.55 178.38Q150.55 178.61 150.45 178.79Q150.37 178.94 150.22 179.06Q149.88 179.3 148.92 179.47Q147.94 179.65 147.23 180.19Q146.73 180.58 146.37 181.15Q145.5 182.52 145.5 184.85L145.5 185.47Q145.5 186.95 146.22 187.9Q146.31 188.02 146.41 188.14Q146.73 188.48 147.12 188.71Q147.84 189.13 148.81 189.13Q149.67 189.13 150.35 188.79Q150.46 188.74 150.55 188.68Q150.84 188.51 151.07 188.28Q151.46 187.91 151.71 187.4Q152.12 186.58 152.12 185.53L152.12 185.41Q152.12 184.11 151.5 183.23Q151.4 183.09 151.28 182.96Q150.99 182.64 150.64 182.43ZM134.19 187.96Q133.85 188.1 133.45 188.1Q132.82 188.1 132.38 187.81Q132.13 187.65 131.95 187.41Q131.42 186.72 131.42 185.44L131.42 185.2Q131.42 183.89 131.95 183.2Q132.15 182.93 132.41 182.77Q132.84 182.5 133.45 182.5Q133.89 182.5 134.25 182.68Q134.47 182.79 134.65 182.96Q134.83 183.13 134.96 183.34Q135.16 183.69 135.2 184.14L136.39 184.14Q136.36 183.41 136.03 182.84Q135.83 182.49 135.51 182.21Q135.28 181.99 135.01 181.84Q134.34 181.46 133.45 181.46Q132.49 181.46 131.78 181.88Q131.73 181.9 131.69 181.93Q131.46 182.07 131.26 182.25Q130.83 182.65 130.56 183.23Q130.16 184.07 130.16 185.15L130.16 185.37Q130.16 187.05 130.99 188.05Q131.02 188.09 131.05 188.12Q131.35 188.46 131.71 188.68Q132.44 189.13 133.45 189.13Q133.81 189.13 134.16 189.05Q134.53 188.97 134.88 188.79Q135.42 188.51 135.79 188.09Q135.88 187.99 135.96 187.87Q136.28 187.41 136.37 186.9Q136.39 186.78 136.39 186.66L135.2 186.66Q135.17 186.92 135.07 187.14Q134.93 187.45 134.64 187.69Q134.43 187.86 134.19 187.96ZM137.91 183.27Q137.48 184.14 137.48 185.23L137.48 185.32Q137.48 186.83 138.2 187.82Q138.3 187.96 138.41 188.09Q138.78 188.5 139.24 188.75Q139.94 189.13 140.85 189.13Q141.66 189.13 142.32 188.82Q142.47 188.74 142.62 188.65Q142.88 188.49 143.1 188.28Q143.53 187.88 143.8 187.32Q144.21 186.46 144.21 185.38L144.21 185.29Q144.21 183.75 143.47 182.75Q143.38 182.62 143.28 182.51Q142.92 182.1 142.47 181.85Q141.76 181.46 140.84 181.46Q140.07 181.46 139.44 181.75Q139.26 181.83 139.1 181.93Q138.9 182.05 138.73 182.2Q138.23 182.63 137.91 183.27ZM157.24 187.96Q156.9 188.1 156.5 188.1Q155.87 188.1 155.43 187.81Q155.19 187.65 155 187.41Q154.47 186.72 154.47 185.44L154.47 185.2Q154.47 183.89 155 183.2Q155.2 182.93 155.46 182.77Q155.89 182.5 156.5 182.5Q156.94 182.5 157.3 182.68Q157.52 182.79 157.7 182.96Q157.88 183.13 158 183.34Q158.21 183.69 158.25 184.14L159.44 184.14Q159.41 183.41 159.08 182.84Q158.88 182.49 158.57 182.21Q158.33 181.99 158.06 181.84Q157.39 181.46 156.5 181.46Q155.54 181.46 154.83 181.88Q154.78 181.9 154.74 181.93Q154.51 182.07 154.31 182.25Q153.88 182.65 153.61 183.23Q153.21 184.07 153.21 185.15L153.21 185.37Q153.21 187.05 154.04 188.05Q154.07 188.09 154.1 188.12Q154.4 188.46 154.76 188.68Q155.5 189.13 156.5 189.13Q156.87 189.13 157.21 189.05Q157.58 188.97 157.93 188.79Q158.47 188.51 158.84 188.09Q158.93 187.99 159.01 187.87Q159.33 187.41 159.42 186.9Q159.44 186.78 159.44 186.66L158.25 186.66Q158.22 186.92 158.13 187.14Q157.98 187.45 157.69 187.69Q157.48 187.86 157.24 187.96ZM176.93 188.71Q177.68 189.13 178.66 189.13Q179.77 189.13 180.54 188.63Q181.07 188.28 181.45 187.7L180.68 187.1Q180.37 187.5 179.97 187.76Q179.92 187.79 179.86 187.83Q179.4 188.1 178.73 188.1Q178.2 188.1 177.78 187.89Q177.44 187.73 177.17 187.43Q177.08 187.33 177.01 187.22Q176.56 186.6 176.53 185.66L181.54 185.66L181.54 185.13Q181.54 183.36 180.74 182.41Q180.51 182.13 180.22 181.93Q179.52 181.46 178.5 181.46Q178.12 181.46 177.75 181.56Q177.29 181.68 176.87 181.95Q176.66 182.08 176.48 182.25Q175.99 182.68 175.69 183.3Q175.27 184.17 175.27 185.27L175.27 185.5Q175.27 186.87 175.91 187.78Q176.05 187.97 176.21 188.14Q176.54 188.49 176.93 188.71ZM163.88 182.62L166.36 182.62L166.36 181.6L160.18 181.6L160.18 182.62L162.62 182.62L162.62 189L163.88 189L163.88 182.62ZM167.71 181.6L167.71 189L171.05 189Q172.42 189 173.17 188.46Q173.45 188.25 173.63 187.97Q173.92 187.53 173.92 186.9Q173.92 186.53 173.78 186.23Q173.68 186 173.51 185.8Q173.43 185.72 173.34 185.64Q172.97 185.31 172.43 185.19Q173.03 184.97 173.34 184.56Q173.5 184.34 173.58 184.1Q173.65 183.88 173.65 183.63Q173.65 183.07 173.4 182.66Q173.2 182.34 172.86 182.12Q172.07 181.6 170.59 181.6L167.71 181.6ZM187.79 189L189.05 189L189.05 181.6L187.79 181.6L187.79 184.81L184.39 184.81L184.39 181.6L183.12 181.6L183.12 189L184.39 189L184.39 185.84L187.79 185.84L187.79 189ZM195.86 189L197.12 189L197.12 181.6L195.86 181.6L195.86 184.81L192.46 184.81L192.46 181.6L191.19 181.6L191.19 189L192.46 189L192.46 185.84L195.86 185.84L195.86 189ZM205.2 181.6L203.94 181.6L200.53 187L200.53 181.6L199.26 181.6L199.26 189L200.53 189L203.94 183.6L203.94 189L205.2 189L205.2 181.6ZM208.61 185.84L209.54 185.84L212.1 189L213.71 189L210.54 185.15L213.46 181.6L211.93 181.6L209.44 184.73L208.61 184.73L208.61 181.6L207.34 181.6L207.34 189L208.61 189L208.61 185.84ZM218.94 181.6L217.21 187.14L215.37 181.6L213.99 181.6L216.63 188.91L216.35 189.67Q216.11 190.36 215.75 190.62Q215.4 190.88 214.75 190.88L214.41 190.85L214.41 191.87L214.88 191.96L215.12 191.98Q215.57 191.98 215.95 191.82Q216.83 191.43 217.32 190.14L220.29 181.6L218.94 181.6ZM139.32 187.35Q138.75 186.61 138.75 185.38Q138.75 183.99 139.33 183.25Q139.62 182.87 140 182.68Q140.37 182.5 140.84 182.5Q141.32 182.5 141.71 182.7Q142.09 182.89 142.37 183.26Q142.95 184.01 142.95 185.23Q142.95 186.59 142.38 187.34Q142.11 187.7 141.75 187.89Q141.36 188.1 140.85 188.1Q140.35 188.1 139.95 187.89Q139.59 187.71 139.32 187.35ZM177.79 182.65Q178.11 182.5 178.5 182.5Q179.03 182.5 179.42 182.74Q179.61 182.86 179.76 183.03Q180.22 183.56 180.28 184.52L180.28 184.62L176.57 184.62Q176.7 183.62 177.22 183.06Q177.47 182.78 177.79 182.65ZM170.61 184.74L168.97 184.74L168.97 182.62L170.7 182.62Q171.93 182.65 172.26 183.21Q172.38 183.41 172.38 183.7Q172.38 183.96 172.27 184.16Q171.93 184.74 170.61 184.74ZM147.74 183.34Q148.18 183.06 148.8 183.06Q149.45 183.06 149.91 183.35Q150.12 183.49 150.3 183.69Q150.35 183.75 150.39 183.81Q150.85 184.42 150.85 185.37Q150.85 186.71 150.3 187.41Q150.08 187.7 149.78 187.87Q149.36 188.11 148.81 188.11Q148.28 188.11 147.87 187.88Q147.56 187.71 147.33 187.41Q146.78 186.72 146.78 185.53L146.78 185.42Q146.78 184.31 147.32 183.69Q147.51 183.48 147.74 183.34ZM168.97 187.98L168.97 185.75L171.02 185.75Q172.13 185.75 172.48 186.27Q172.64 186.51 172.64 186.86Q172.64 187.18 172.5 187.41Q172.41 187.57 172.25 187.68Q171.86 187.98 171.06 187.98L168.97 187.98Z" fill="#E8E8E8" fill-opacity="1.000000" fill-rule="evenodd"/>
	<path id="Комиссия - 0%" d="M241.08 114.06C239.07 114.06 238 112.64 238 110.95L238 110.18C238 108.47 239.12 107.04 241.08 107.04C243.09 107.04 244.15 108.47 244.15 110.18L244.15 110.95C244.15 112.65 243.06 114.06 241.08 114.06ZM235.25 114.73C235.25 119.51 233.16 122.28 229.65 122.27C226.14 122.27 224.05 119.5 224.05 114.73C224.06 109.98 226.16 107.25 229.65 107.25C233.14 107.25 235.25 109.99 235.25 114.73ZM240.58 122L238.8 122L248.8 107.45L250.58 107.45L240.58 122ZM113.07 122L116.04 122L110.17 114.62L115.75 107.71L112.98 107.71L107.41 114.64L107.41 107.71L104.86 107.71L104.86 122L107.41 122L107.41 114.75L113.07 122ZM241.08 108.67C240.18 108.67 239.87 109.43 239.87 110.18L239.87 110.95C239.87 111.7 240.17 112.44 241.08 112.44C241.99 112.44 242.28 111.7 242.28 110.95L242.28 110.18C242.28 109.42 242.02 108.67 241.08 108.67ZM226.71 114.73C226.7 118.23 227.84 120.05 229.65 120.05C231.47 120.05 232.6 118.23 232.6 114.73C232.59 111.27 231.46 109.45 229.65 109.45C227.85 109.45 226.72 111.27 226.71 114.73ZM125.93 120.73C126.87 119.75 127.33 118.36 127.33 116.56Q127.33 114.75 126.68 113.5C126.24 112.67 125.63 112.04 124.85 111.6C124.08 111.17 123.2 110.96 122.2 110.96Q120.33 110.96 119.07 111.83Q118.71 112.08 118.4 112.41Q118.36 112.45 118.32 112.5Q117.02 113.94 117.02 116.56Q117.02 118.36 117.68 119.62Q118.14 120.5 118.85 121.09Q119.15 121.34 119.49 121.54C120.27 121.98 121.15 122.2 122.13 122.2Q123.96 122.2 125.21 121.34Q125.6 121.08 125.93 120.73ZM160.59 120.86C161.49 121.75 162.72 122.2 164.28 122.2C164.98 122.2 165.57 122.14 166.04 122.02C166.52 121.89 166.96 121.72 167.38 121.48L167.38 119.3C166.95 119.55 166.5 119.75 166.03 119.9Q165.34 120.12 164.44 120.12Q163.6 120.12 163.03 119.73Q162.73 119.53 162.5 119.24C162.06 118.65 161.84 117.78 161.84 116.61C161.84 114.23 162.72 113.04 164.48 113.04C164.86 113.04 165.26 113.09 165.67 113.21C166.09 113.32 166.5 113.46 166.91 113.62L167.66 111.63C167.28 111.45 166.83 111.29 166.29 111.16C165.76 111.02 165.16 110.96 164.48 110.96C163.46 110.96 162.56 111.15 161.77 111.55Q161.42 111.72 161.11 111.96Q160.39 112.51 159.92 113.39C159.48 114.22 159.26 115.3 159.26 116.63C159.26 118.55 159.7 119.96 160.59 120.86ZM170.61 120.86C171.51 121.75 172.74 122.2 174.3 122.2C175 122.2 175.59 122.14 176.06 122.02C176.54 121.89 176.98 121.72 177.4 121.48L177.4 119.3C176.97 119.55 176.52 119.75 176.05 119.9Q175.36 120.12 174.46 120.12Q173.62 120.12 173.05 119.73Q172.75 119.53 172.52 119.24C172.08 118.65 171.86 117.78 171.86 116.61C171.86 114.23 172.74 113.04 174.5 113.04C174.88 113.04 175.28 113.09 175.69 113.21C176.11 113.32 176.52 113.46 176.93 113.62L177.68 111.63C177.3 111.45 176.85 111.29 176.31 111.16C175.78 111.02 175.18 110.96 174.5 110.96C173.48 110.96 172.58 111.15 171.79 111.55Q171.44 111.72 171.13 111.96Q170.41 112.51 169.95 113.39C169.5 114.22 169.28 115.3 169.28 116.63C169.28 118.55 169.72 119.96 170.61 120.86ZM142.84 122L142.84 111.16L139.41 111.16L136.42 119.02L133.44 111.16L129.94 111.16L129.94 122L132.25 122L132.25 116.16C132.25 115.66 132.25 115.2 132.23 114.77C132.21 114.35 132.18 113.94 132.15 113.55L132.22 113.55L135.42 122L137.35 122L140.56 113.55L140.62 113.55C140.55 114.34 140.52 115.18 140.52 116.08L140.52 122L142.84 122ZM148.45 117.31C148.48 116.88 148.49 116.55 148.49 116.32L148.49 111.16L146.08 111.16L146.08 122L149.11 122L154.4 113.86C154.38 114.04 154.36 114.32 154.33 114.69C154.31 115.05 154.28 115.44 154.27 115.85C154.25 116.25 154.24 116.6 154.24 116.9L154.24 122L156.66 122L156.66 111.16L153.62 111.16L148.32 119.31Q148.34 119.08 148.38 118.51C148.4 118.13 148.43 117.73 148.45 117.31ZM182.31 117.31C182.34 116.88 182.35 116.55 182.35 116.32L182.35 111.16L179.94 111.16L179.94 122L182.97 122L188.26 113.86C188.24 114.04 188.22 114.32 188.19 114.69C188.17 115.05 188.14 115.44 188.13 115.85C188.11 116.25 188.1 116.6 188.1 116.9L188.1 122L190.52 122L190.52 111.16L187.48 111.16L182.18 119.31Q182.2 119.08 182.24 118.51C182.26 118.13 182.29 117.73 182.31 117.31ZM192.26 122L195.04 122L197.59 117.85L199.62 117.85L199.62 122L202.14 122L202.14 111.16L197.16 111.16C195.91 111.16 194.91 111.44 194.13 112.01Q193.71 112.32 193.44 112.73Q192.98 113.44 192.98 114.46C192.98 115.06 193.08 115.56 193.29 115.98C193.51 116.4 193.79 116.75 194.13 117.02C194.48 117.28 194.85 117.48 195.24 117.62L192.26 122ZM120.21 119.22C119.8 118.59 119.6 117.7 119.6 116.56C119.6 115.41 119.8 114.53 120.21 113.92Q120.39 113.65 120.63 113.45Q121.21 113 122.15 113Q123.17 113 123.77 113.5Q123.99 113.68 124.15 113.92C124.55 114.53 124.76 115.41 124.76 116.56C124.76 117.7 124.55 118.59 124.15 119.22C123.74 119.84 123.08 120.15 122.17 120.15Q121.22 120.15 120.63 119.69Q120.39 119.49 120.21 119.22ZM196.03 115.66C195.63 115.39 195.44 115 195.44 114.48C195.44 114.06 195.58 113.72 195.87 113.44C196.15 113.16 196.62 113.02 197.26 113.02L199.62 113.02L199.62 116.05L197.61 116.05C196.95 116.05 196.42 115.92 196.03 115.66ZM210.09 113.67L216.63 113.67L216.63 115.78L210.09 115.78L210.09 113.67ZM248.46 122.4C246.47 122.4 245.39 120.96 245.39 119.27L245.39 118.5C245.39 116.81 246.5 115.37 248.46 115.37C250.48 115.37 251.54 116.8 251.54 118.5L251.54 119.27C251.54 120.96 250.46 122.4 248.46 122.4ZM248.46 116.99C247.57 116.99 247.24 117.75 247.24 118.5L247.24 119.27C247.24 120.01 247.56 120.77 248.46 120.77C249.37 120.77 249.68 120.02 249.68 119.27L249.68 118.5C249.68 117.75 249.4 116.99 248.46 116.99Z" fill="#FFFFFF" fill-opacity="1.000000" fill-rule="evenodd"/>
	<rect id="commission" rx="-0.500000" width="69.000000" height="69.000000" transform="translate(140.500000 0.500000)" fill="#FFFFFF" fill-opacity="0"/>
	<g clip-path="url(#clip19_203)">
		<path id="Vector" d="M173.9 19.68C173.9 13.05 168.5 7.65 161.87 7.65C155.24 7.65 149.84 13.05 149.84 19.68C149.84 22.45 150.79 24.99 152.36 27.02C152.15 27.46 152.03 27.94 152.03 28.43L152.03 35.04C150.77 33.03 148.53 31.71 146.05 31.71C144.52 31.71 143.28 32.96 143.28 34.49C143.28 35.04 143.44 35.57 143.74 36.02L144.87 37.71C145.28 38.34 145.55 39.06 145.65 39.81L146.42 46.01C146.54 46.95 146.9 47.85 147.47 48.61L149.84 51.77L149.84 53.59L147.65 53.59L147.65 68.9L171.71 68.9L171.71 53.59L169.53 53.59L169.53 51.66L171.14 48.44C171.51 47.68 171.71 46.84 171.71 45.99L171.71 28.43C171.71 27.94 171.59 27.46 171.38 27.02C172.95 24.99 173.9 22.45 173.9 19.68ZM161.87 9.84C167.3 9.84 171.71 14.26 171.71 19.68C171.71 25.11 167.3 29.53 161.87 29.53C156.44 29.53 152.03 25.11 152.03 19.68C152.03 14.26 156.44 9.84 161.87 9.84ZM169.53 55.78L169.53 57.96L149.84 57.96L149.84 55.78L169.53 55.78ZM149.84 66.71L149.84 60.15L169.53 60.15L169.53 66.71L149.84 66.71ZM169.18 47.46L167.34 51.14L167.34 53.59L152.03 53.59L152.03 51.04L149.22 47.3C148.88 46.84 148.66 46.3 148.59 45.74L147.82 39.54C147.68 38.46 147.29 37.41 146.69 36.5L145.56 34.81C145.5 34.72 145.46 34.6 145.46 34.49C145.46 34.16 145.73 33.9 146.05 33.9C148.36 33.9 150.36 35.55 150.82 37.81L152.18 44.64L152.85 44.81C154.94 45.33 156.4 47.2 156.4 49.35L156.4 51.4L158.59 51.4L158.59 49.35C158.59 46.49 156.83 43.98 154.21 42.96L154.21 28.96C154.88 29.51 155.62 29.99 156.4 30.39L156.4 41.56L158.59 41.56L158.59 31.25C159.29 31.45 160.02 31.59 160.78 31.66L160.78 41.56L162.96 41.56L162.96 31.66C163.72 31.59 164.45 31.45 165.15 31.25L165.15 41.56L167.34 41.56L167.34 30.39C168.12 29.99 168.86 29.51 169.53 28.96L169.53 45.99C169.53 46.5 169.41 47.01 169.18 47.46Z" fill="#FFFFFF" fill-opacity="1.000000" fill-rule="nonzero"/>
		<path id="Vector" d="M161.87 22.96C161.27 22.96 160.78 22.47 160.78 21.87L158.59 21.87C158.59 23.29 159.51 24.5 160.78 24.95L160.78 27.34L162.96 27.34L162.96 25.15L165.15 25.15L165.15 21.87C165.15 20.06 163.68 18.59 161.87 18.59C161.27 18.59 160.78 18.1 160.78 17.5L160.78 16.4L161.87 16.4C162.47 16.4 162.96 16.89 162.96 17.5L165.15 17.5C165.15 16.07 164.23 14.87 162.96 14.42L162.96 12.03L160.78 12.03L160.78 14.21L158.59 14.21L158.59 17.5C158.59 19.3 160.06 20.78 161.87 20.78C162.47 20.78 162.96 21.27 162.96 21.87L162.96 22.96L161.87 22.96Z" fill="#FFFFFF" fill-opacity="1.000000" fill-rule="nonzero"/>
		<path id="Vector" d="M206.25 33.97L205.12 32.28C204.71 31.65 204.44 30.93 204.34 30.18L203.57 23.98C203.45 23.04 203.09 22.14 202.52 21.38L200.15 18.22L200.15 16.4L202.34 16.4L202.34 1.09L178.28 1.09L178.28 16.4L180.46 16.4L180.46 18.33L178.85 21.55C178.48 22.31 178.28 23.15 178.28 24L178.28 41.56C178.28 41.78 178.3 41.99 178.34 42.2C175.61 44.79 173.9 48.44 173.9 52.5C173.9 60.34 180.28 66.71 188.12 66.71C195.96 66.71 202.34 60.34 202.34 52.5C202.34 48.44 200.63 44.79 197.9 42.2C197.94 41.99 197.96 41.78 197.96 41.56L197.96 34.95C199.23 36.96 201.46 38.28 203.94 38.28C205.47 38.28 206.71 37.03 206.71 35.5C206.71 34.95 206.55 34.42 206.25 33.97ZM200.15 3.28L200.15 14.21L180.46 14.21L180.46 9.84L189.21 9.84L189.21 7.65L180.46 7.65L180.46 3.28L200.15 3.28ZM200.15 52.5C200.15 59.13 194.75 64.53 188.12 64.53C181.49 64.53 176.09 59.13 176.09 52.5C176.09 45.86 181.49 40.46 188.12 40.46C194.75 40.46 200.15 45.86 200.15 52.5ZM203.94 36.09C201.63 36.09 199.63 34.44 199.17 32.18L197.81 25.35L197.14 25.18C195.05 24.66 193.59 22.79 193.59 20.64L193.59 18.59L191.4 18.59L191.4 20.64C191.4 23.5 193.16 26.01 195.78 27.03L195.78 40.53C195.08 40.09 194.36 39.69 193.59 39.37L193.59 28.43L191.4 28.43L191.4 38.67C190.69 38.5 189.96 38.39 189.21 38.33L189.21 28.43L187.03 28.43L187.03 38.33C186.28 38.39 185.55 38.5 184.84 38.67L184.84 28.43L182.65 28.43L182.65 39.37C181.89 39.69 181.16 40.09 180.46 40.53L180.46 24C180.46 23.49 180.58 22.98 180.81 22.53L182.65 18.85L182.65 16.4L197.96 16.4L197.96 18.95L200.77 22.69C201.11 23.15 201.33 23.69 201.4 24.25L202.17 30.45C202.31 31.53 202.7 32.58 203.3 33.49L204.43 35.18C204.49 35.27 204.53 35.39 204.53 35.5C204.53 35.83 204.26 36.09 203.94 36.09Z" fill="#FFFFFF" fill-opacity="1.000000" fill-rule="nonzero"/>
		<path id="Vector" d="M180.77 58.28L193.9 45.16L195.44 46.71L182.32 59.83L180.77 58.28Z" fill="#FFFFFF" fill-opacity="1.000000" fill-rule="nonzero"/>
		<path id="Vector" d="M192.5 53.59C190.69 53.59 189.21 55.06 189.21 56.87C189.21 58.68 190.69 60.15 192.5 60.15C194.3 60.15 195.78 58.68 195.78 56.87C195.78 55.06 194.3 53.59 192.5 53.59ZM192.5 57.96C191.89 57.96 191.4 57.47 191.4 56.87C191.4 56.27 191.89 55.78 192.5 55.78C193.1 55.78 193.59 56.27 193.59 56.87C193.59 57.47 193.1 57.96 192.5 57.96Z" fill="#FFFFFF" fill-opacity="1.000000" fill-rule="nonzero"/>
		<path id="Vector" d="M183.75 51.4C185.55 51.4 187.03 49.93 187.03 48.12C187.03 46.31 185.55 44.84 183.75 44.84C181.94 44.84 180.46 46.31 180.46 48.12C180.46 49.93 181.94 51.4 183.75 51.4ZM183.75 47.03C184.35 47.03 184.84 47.52 184.84 48.12C184.84 48.72 184.35 49.21 183.75 49.21C183.14 49.21 182.65 48.72 182.65 48.12C182.65 47.52 183.14 47.03 183.75 47.03Z" fill="#FFFFFF" fill-opacity="1.000000" fill-rule="nonzero"/>
		<path id="Vector" d="M194.68 12.03C196.49 12.03 197.96 10.55 197.96 8.75C197.96 6.94 196.49 5.46 194.68 5.46C192.87 5.46 191.4 6.94 191.4 8.75C191.4 10.55 192.87 12.03 194.68 12.03ZM194.68 7.65C195.29 7.65 195.78 8.14 195.78 8.75C195.78 9.35 195.29 9.84 194.68 9.84C194.08 9.84 193.59 9.35 193.59 8.75C193.59 8.14 194.08 7.65 194.68 7.65Z" fill="#FFFFFF" fill-opacity="1.000000" fill-rule="nonzero"/>
	</g>
</svg>
